<?xml version="1.0" encoding="UTF-8"?>
<svg width="256px" height="256px" viewBox="0 0 256 256" version="1.1" xmlns="http://www.w3.org/2000/svg" xmlns:xlink="http://www.w3.org/1999/xlink">
    <title>bird</title>
    <defs>
        <linearGradient x1="50%" y1="0%" x2="50%" y2="100%" id="linearGradient-1">
            <stop stop-color="#1CBFAA" offset="0%"></stop>
            <stop stop-color="#158D7D" offset="100%"></stop>
        </linearGradient>
        <polygon id="path-2" points="0 0 58.6642466 0 58.6642466 73.3079927 0 73.3079927"></polygon>
        <polygon id="path-4" points="-2.42640704e-16 0 195.102385 0 195.102385 163.392404 -2.42640704e-16 163.392404"></polygon>
        <polygon id="path-6" points="0 0 39.8077136 0 39.8077136 31.3505904 0 31.3505904"></polygon>
        <polygon id="path-8" points="0 0 140.547956 0 140.547956 133.116218 0 133.116218"></polygon>
    </defs>
    <g id="Page-1" stroke="none" stroke-width="1" fill="none" fill-rule="evenodd">
        <g id="Extra-Large" transform="translate(-628, -31)">
            <g id="bird" transform="translate(628, 31)">
                <rect id="Rectangle" fill="url(#linearGradient-1)" x="0" y="0" width="256" height="256"></rect>
                <g transform="translate(29, 16)">
                    <path d="M156.397707,120.696594 C156.397707,120.696594 124.247616,166.112352 126.412466,181.499955 C128.577316,196.889146 177.249886,129.438647 188.069369,105.385286 C198.888851,81.333515 184.224455,50.6568574 147.267825,69.3584923 C110.311194,88.0601272 66.3434378,125.930699 66.3116485,133.455223 C66.2798592,140.979746 104.913374,116.950227 104.913374,116.950227 C104.913374,116.950227 58.53599,148.609173 56.2439827,167.312398 C53.950386,186.015622 123.664282,124.457266 123.664282,124.457266 C123.664282,124.457266 93.7696412,163.845777 96.282584,176.296049 C98.7955268,188.746322 156.397707,120.696594 156.397707,120.696594" id="Fill-1" fill="#F5909A"></path>
                    <g id="Group-5" transform="translate(102.1167, 150.692)">
                        <mask id="mask-3" fill="white">
                            <use xlink:href="#path-2"></use>
                        </mask>
                        <g id="Clip-4"></g>
                        <path d="M14.3452768,4.42188919 L16.4195274,36.8803361 C16.4195274,36.8803361 6.64114415,42.6246594 0.288056045,51.2300182 C-0.64654886,52.4952316 0.880926163,54.1244323 2.18746567,53.2470481 C7.23083534,49.8551317 14.6027699,46.5140781 19.8034966,51.150545 C25.2935056,56.0460945 30.8820615,65.8292461 34.226294,72.3094914 C35.113215,74.0277021 37.7215256,73.390327 37.7103994,71.4575386 C37.6674838,64.3574024 36.3720706,53.8240236 29.7026791,48.5470027 C29.7026791,48.5470027 42.9588099,54.7077657 49.6361487,69.0463215 C50.3227972,70.5197548 52.5496364,69.9570845 52.4812895,68.3310627 C52.1856491,61.3294732 49.976294,51.1171662 40.5396455,45.0692552 C40.5396455,45.0692552 51.2462758,49.2972298 57.3561759,58.0361035 C57.8441414,58.7338783 58.9122613,58.1743869 58.6118526,57.3780654 C55.4567663,49.0270209 46.832334,35.4100817 24.0394184,34.6503179 L19.9052223,0 L14.3452768,4.42188919 Z" id="Fill-3" fill="#FDC664" mask="url(#mask-3)"></path>
                    </g>
                    <path d="M142.262125,145.518619 L150.312761,177.031335 C150.312761,177.031335 141.767802,184.487511 137.118619,194.119664 C136.43515,195.537466 138.239192,196.855132 139.358174,195.750454 C143.686285,191.482743 150.312761,186.83515 156.282788,190.427339 C162.583424,194.22139 169.888601,202.799728 174.374069,208.54723 C175.564578,210.071526 178.009173,208.963669 177.640418,207.065849 C176.284605,200.096049 173.059582,189.985468 165.527112,186.035649 C165.527112,186.035649 179.695595,189.634196 188.912897,202.486603 C189.861807,203.809037 191.945595,202.842643 191.576839,201.257947 C189.988965,194.431199 185.926294,184.805404 175.532788,180.610808 C175.532788,180.610808 186.838647,182.782016 194.460127,190.236603 C195.068892,190.832652 196.016213,190.084015 195.572752,189.357629 C190.925159,181.736149 179.927657,169.951862 157.389055,173.42802 L146.90654,140.143052 L142.262125,145.518619 Z" id="Fill-6" fill="#FDC664"></path>
                    <g id="Group-10" transform="translate(0.1259, 0)">
                        <mask id="mask-5" fill="white">
                            <use xlink:href="#path-4"></use>
                        </mask>
                        <g id="Clip-9"></g>
                        <path d="M-2.42640704e-16,101.94807 C-2.42640704e-16,101.94807 23.5304269,125.8854 45.3760218,112.6849 C67.2200272,99.48599 79.1998183,7.08567212 135.301544,0.484627611 C191.40168,-6.11482743 179.851045,56.7898047 179.851045,56.7898047 C179.851045,56.7898047 198.001135,68.1099682 194.701408,101.94807 C191.40168,135.786172 139.345141,182.751658 52.0215713,154.958288 C-2.42640704e-16,138.40243 -2.42640704e-16,101.94807 -2.42640704e-16,101.94807" id="Fill-8" fill="#FA4554" mask="url(#mask-5)"></path>
                    </g>
                    <path d="M184.102066,35.5478883 C184.102066,38.9652361 181.33163,41.7356721 177.914282,41.7356721 C174.496935,41.7356721 171.726499,38.9652361 171.726499,35.5478883 C171.726499,32.1305404 174.496935,29.3601045 177.914282,29.3601045 C181.33163,29.3601045 184.102066,32.1305404 184.102066,35.5478883" id="Fill-11" fill="#FFFFFF"></path>
                    <path d="M177.9146,35.5478883 L182.284037,35.5478883 C182.284037,37.9448002 180.311512,39.9173252 177.9146,39.9173252 C175.517688,39.9173252 173.545163,37.9448002 173.545163,35.5478883 C173.545163,33.1509764 175.517688,31.1784514 177.9146,31.1784514 C179.136898,31.1784514 180.306744,31.6918483 181.133265,32.591485 L177.9146,35.5478883 Z" id="Fill-13" fill="#633B0A"></path>
                    <path d="M148.901794,37.3654405 C148.901794,41.572752 145.490804,44.9837421 141.283492,44.9837421 C137.074591,44.9837421 133.663601,41.572752 133.663601,37.3654405 C133.663601,33.158129 137.074591,29.747139 141.283492,29.747139 C145.490804,29.747139 148.901794,33.158129 148.901794,37.3654405" id="Fill-15" fill="#FFFFFF"></path>
                    <path d="M141.283174,37.3654405 L146.66351,37.3654405 C146.66351,40.3170754 144.234809,42.7457766 141.283174,42.7457766 C138.33154,42.7457766 135.902838,40.3170754 135.902838,37.3654405 C135.902838,34.4138056 138.33154,31.9851045 141.283174,31.9851045 C142.788397,31.9851045 144.228451,32.6161217 145.245708,33.7255677 L141.283174,37.3654405 Z" id="Fill-17" fill="#633B0A"></path>
                    <g id="Group-21" transform="translate(158.044, 39.8104)">
                        <mask id="mask-7" fill="white">
                            <use xlink:href="#path-6"></use>
                        </mask>
                        <g id="Clip-20"></g>
                        <path d="M9.55798606,0 C9.55798606,0 38.7087581,0.549954587 39.8086673,31.3505904 C39.8086673,31.3505904 20.0087127,20.3499092 12.8577136,23.6496367 C5.70830395,26.9509537 -3.28647352,21.2272934 1.20535209,15.1777929 C5.6971777,9.12829246 10.1079406,13.7504541 9.55798606,0" id="Fill-19" fill="#FDC664" mask="url(#mask-7)"></path>
                    </g>
                    <g id="Group-24" transform="translate(0, 70.0146)">
                        <mask id="mask-9" fill="white">
                            <use xlink:href="#path-8"></use>
                        </mask>
                        <g id="Clip-23"></g>
                        <path d="M103.251431,63.8640672 C103.251431,63.8640672 68.051158,112.79731 69.1510672,130.397446 C70.2509764,147.997582 123.45352,75.3956294 135.902203,48.9962198 C148.352475,22.5968101 135.833856,-13.2996476 97.6771798,4.99667389 C59.5205041,23.2929954 13.050931,62.7530317 12.5009764,71.2741489 C11.9510218,79.7968555 52.14698,55.5956748 52.14698,55.5956748 C52.14698,55.5956748 3.70011353,87.8331862 0.125408719,108.839544 C-3.44929609,129.847491 70.3368074,65.5647938 70.3368074,65.5647938 C70.3368074,65.5647938 37.8004768,107.846129 39.4519301,122.146538 C41.1017938,136.446946 103.251431,63.8640672 103.251431,63.8640672" id="Fill-22" fill="#F5909A" mask="url(#mask-9)"></path>
                    </g>
                    <path d="M169.664487,50.1916213 C170.63406,49.3873524 170.956721,48.7452089 171.158583,47.9600136 C171.292098,47.5721844 171.320708,47.1112398 171.417666,46.6232743 C171.482834,46.1241826 171.544823,45.5964805 171.727611,44.9845368 C172.180609,45.4152816 172.477838,45.9366258 172.652679,46.5104223 C172.814805,47.0905767 172.864078,47.7247729 172.690827,48.3748638 C172.514396,49.0090599 172.113851,49.6464351 171.519391,49.9929382 C170.945595,50.3505677 170.24941,50.4459355 169.664487,50.1916213" id="Fill-25" fill="#633B0A"></path>
                    <path d="M132.539214,26.8853088 C132.539214,26.8853088 135.01401,19.5976158 144.914782,23.5855813" id="Stroke-27" stroke="#633B0A" stroke-linecap="round" stroke-linejoin="round"></path>
                    <path d="M173.650068,23.4062897 C173.650068,23.4062897 178.739532,20.2845822 181.214328,24.6381244" id="Stroke-29" stroke="#633B0A" stroke-linecap="round" stroke-linejoin="round"></path>
                </g>
            </g>
        </g>
    </g>
</svg>