<?xml version="1.0" encoding="UTF-8"?>
<svg width="256px" height="256px" viewBox="0 0 256 256" version="1.1" xmlns="http://www.w3.org/2000/svg" xmlns:xlink="http://www.w3.org/1999/xlink">
    <title>cat</title>
    <defs>
        <linearGradient x1="50%" y1="0%" x2="50%" y2="100%" id="linearGradient-1">
            <stop stop-color="#FFCB30" offset="0%"></stop>
            <stop stop-color="#FFC107" offset="100%"></stop>
        </linearGradient>
        <path d="M7.7571184,24.720859 C7.7571184,24.720859 -4.6381724,40.4976978 1.90878342,54.8968172 L1.90878342,54.8968172 C8.45573924,69.2959367 13.6082423,85.1424981 13.6082423,85.1424981 L13.6082423,85.1424981 C13.6082423,85.1424981 1.06235058,93.1968574 6.09493068,95.7975119 L6.09493068,95.7975119 C11.1275108,98.3967719 27.6155205,94.729361 29.7936558,86.1841544 L29.7936558,86.1841544 C31.9690021,77.6389477 17.7483726,56.2438586 24.5574856,41.406881 L24.5574856,41.406881 C28.2639411,33.3302105 35.3770447,29.1287242 41.5656262,22.8676312 L41.5656262,22.8676312 C49.6687913,14.6654599 44.404732,0.538258775 32.8879465,0.0125500751 L32.8879465,0.0125500751 C32.8210128,0.00976116949 32.7554735,0.00697226392 32.6885397,0.00418335835 L32.6885397,0.00418335835 C32.6048726,0.00139445278 32.5184165,0 32.4333549,0 L32.4333549,0 C21.7657911,-0.00278890557 7.7571184,24.720859 7.7571184,24.720859 L7.7571184,24.720859 Z" id="path-2"></path>
        <path d="M7.7571184,24.720859 C7.7571184,24.720859 -4.6381724,40.4976978 1.90878342,54.8968172 L1.90878342,54.8968172 C8.45573924,69.2959367 13.6082423,85.1424981 13.6082423,85.1424981 L13.6082423,85.1424981 C13.6082423,85.1424981 1.06235058,93.1968574 6.09493068,95.7975119 L6.09493068,95.7975119 C11.1275108,98.3967719 27.6155205,94.729361 29.7936558,86.1841544 L29.7936558,86.1841544 C31.9690021,77.6389477 17.7483726,56.2438586 24.5574856,41.406881 L24.5574856,41.406881 C28.2639411,33.3302105 35.3770447,29.1287242 41.5656262,22.8676312 L41.5656262,22.8676312 C49.6687913,14.6654599 44.404732,0.538258775 32.8879465,0.0125500751 L32.8879465,0.0125500751 C32.8210128,0.00976116949 32.7554735,0.00697226392 32.6885397,0.00418335835 L32.6885397,0.00418335835 C32.6048726,0.00139445278 32.5184165,0 32.4333549,0 L32.4333549,0 C21.7657911,-0.00278890557 7.7571184,24.720859 7.7571184,24.720859" id="path-4"></path>
        <path d="M52.0077383,43.09138 C30.9236122,85.2582377 9.51597303,127.750003 9.51597303,127.750003 L9.51597303,127.750003 C9.51597303,127.750003 -1.18784654,128.07491 0.108994547,132.290341 L0.108994547,132.290341 C1.40583564,136.507166 11.1377216,146.239052 20.5447001,136.507166 L20.5447001,136.507166 C29.9516786,126.778069 38.7088421,100.202588 44.8723234,99.543012 L44.8723234,99.543012 C51.0344102,98.880647 55.2512355,99.530462 54.6028149,105.044128 L54.6028149,105.044128 C53.9529999,110.559189 43.5740878,140.223383 42.6007598,141.609469 L42.6007598,141.609469 C42.6007598,141.609469 33.8435963,146.239052 33.5200833,150.780785 L33.5200833,150.780785 C33.1951758,155.321123 46.950058,156.942872 54.6683542,148.834129 L54.6683542,148.834129 C62.3866504,140.723992 70.4967878,106.665877 80.2272793,101.477118 L80.2272793,101.477118 C89.9591653,96.2869648 123.043952,81.0414125 135.694428,81.689833 L135.694428,81.689833 C135.694428,81.689833 124.342188,98.2322264 131.801116,112.180938 L131.801116,112.180938 C139.262832,126.128254 145.424919,141.609469 145.424919,141.609469 L145.424919,141.609469 C145.424919,141.609469 133.422864,150.455878 138.614412,152.726047 L138.614412,152.726047 C143.803171,154.99761 160.022051,150.274599 161.6438,141.60668 L161.6438,141.60668 C163.265548,132.940156 147.696483,112.505845 153.535057,97.2602928 L153.535057,97.2602928 C159.372236,82.0147405 177.537772,79.0947564 178.836008,53.470292 L178.836008,53.470292 C180.131455,27.8458277 156.777159,8.70835764 135.694428,2.86978383 L135.694428,2.86978383 C129.894899,1.26337422 123.550138,0 116.690825,0 L116.690825,0 C98.6145337,0 76.9321874,8.76134685 52.0077383,43.09138 L52.0077383,43.09138 Z" id="path-6"></path>
        <path d="M52.0077383,43.09138 C30.9236122,85.2582377 9.51597303,127.750003 9.51597303,127.750003 L9.51597303,127.750003 C9.51597303,127.750003 -1.18784654,128.07491 0.108994547,132.290341 L0.108994547,132.290341 C1.40583564,136.507166 11.1377216,146.239052 20.5447001,136.507166 L20.5447001,136.507166 C29.9516786,126.778069 38.7088421,100.202588 44.8723234,99.543012 L44.8723234,99.543012 C51.0344102,98.880647 55.2512355,99.530462 54.6028149,105.044128 L54.6028149,105.044128 C53.9529999,110.559189 43.5740878,140.223383 42.6007598,141.609469 L42.6007598,141.609469 C42.6007598,141.609469 33.8435963,146.239052 33.5200833,150.780785 L33.5200833,150.780785 C33.1951758,155.321123 46.950058,156.942872 54.6683542,148.834129 L54.6683542,148.834129 C62.3866504,140.723992 70.4967878,106.665877 80.2272793,101.477118 L80.2272793,101.477118 C89.9591653,96.2869648 123.043952,81.0414125 135.694428,81.689833 L135.694428,81.689833 C135.694428,81.689833 124.342188,98.2322264 131.801116,112.180938 L131.801116,112.180938 C139.262832,126.128254 145.424919,141.609469 145.424919,141.609469 L145.424919,141.609469 C145.424919,141.609469 133.422864,150.455878 138.614412,152.726047 L138.614412,152.726047 C143.803171,154.99761 160.022051,150.274599 161.6438,141.60668 L161.6438,141.60668 C163.265548,132.940156 147.696483,112.505845 153.535057,97.2602928 L153.535057,97.2602928 C159.372236,82.0147405 177.537772,79.0947564 178.836008,53.470292 L178.836008,53.470292 C180.131455,27.8458277 156.777159,8.70835764 135.694428,2.86978383 L135.694428,2.86978383 C129.894899,1.26337422 123.550138,0 116.690825,0 L116.690825,0 C98.6145337,0 76.9321874,8.76134685 52.0077383,43.09138 L52.0077383,43.09138 Z" id="path-8"></path>
        <path d="M52.0077383,43.09138 C30.9236122,85.2582377 9.51597303,127.750003 9.51597303,127.750003 L9.51597303,127.750003 C9.51597303,127.750003 -1.18784654,128.07491 0.108994547,132.290341 L0.108994547,132.290341 C1.40583564,136.507166 11.1377216,146.239052 20.5447001,136.507166 L20.5447001,136.507166 C29.9516786,126.778069 38.7088421,100.202588 44.8723234,99.543012 L44.8723234,99.543012 C51.0344102,98.880647 55.2512355,99.530462 54.6028149,105.044128 L54.6028149,105.044128 C53.9529999,110.559189 43.5740878,140.223383 42.6007598,141.609469 L42.6007598,141.609469 C42.6007598,141.609469 33.8435963,146.239052 33.5200833,150.780785 L33.5200833,150.780785 C33.1951758,155.321123 46.950058,156.942872 54.6683542,148.834129 L54.6683542,148.834129 C62.3866504,140.723992 70.4967878,106.665877 80.2272793,101.477118 L80.2272793,101.477118 C89.9591653,96.2869648 123.043952,81.0414125 135.694428,81.689833 L135.694428,81.689833 C135.694428,81.689833 124.342188,98.2322264 131.801116,112.180938 L131.801116,112.180938 C139.262832,126.128254 145.424919,141.609469 145.424919,141.609469 L145.424919,141.609469 C145.424919,141.609469 133.422864,150.455878 138.614412,152.726047 L138.614412,152.726047 C143.803171,154.99761 160.022051,150.274599 161.6438,141.60668 L161.6438,141.60668 C163.265548,132.940156 147.696483,112.505845 153.535057,97.2602928 L153.535057,97.2602928 C159.372236,82.0147405 177.537772,79.0947564 178.836008,53.470292 L178.836008,53.470292 C180.131455,27.8458277 156.777159,8.70835764 135.694428,2.86978383 L135.694428,2.86978383 C129.894899,1.26337422 123.550138,0 116.690825,0 L116.690825,0 C98.6145337,0 76.9321874,8.76134685 52.0077383,43.09138 L52.0077383,43.09138 Z" id="path-10"></path>
        <path d="M52.0077383,43.09138 C30.9236122,85.2582377 9.51597303,127.750003 9.51597303,127.750003 L9.51597303,127.750003 C9.51597303,127.750003 -1.18784654,128.07491 0.108994547,132.290341 L0.108994547,132.290341 C1.40583564,136.507166 11.1377216,146.239052 20.5447001,136.507166 L20.5447001,136.507166 C29.9516786,126.778069 38.7088421,100.202588 44.8723234,99.543012 L44.8723234,99.543012 C51.0344102,98.880647 55.2512355,99.530462 54.6028149,105.044128 L54.6028149,105.044128 C53.9529999,110.559189 43.5740878,140.223383 42.6007598,141.609469 L42.6007598,141.609469 C42.6007598,141.609469 33.8435963,146.239052 33.5200833,150.780785 L33.5200833,150.780785 C33.1951758,155.321123 46.950058,156.942872 54.6683542,148.834129 L54.6683542,148.834129 C62.3866504,140.723992 70.4967878,106.665877 80.2272793,101.477118 L80.2272793,101.477118 C89.9591653,96.2869648 123.043952,81.0414125 135.694428,81.689833 L135.694428,81.689833 C135.694428,81.689833 124.342188,98.2322264 131.801116,112.180938 L131.801116,112.180938 C139.262832,126.128254 145.424919,141.609469 145.424919,141.609469 L145.424919,141.609469 C145.424919,141.609469 133.422864,150.455878 138.614412,152.726047 L138.614412,152.726047 C143.803171,154.99761 160.022051,150.274599 161.6438,141.60668 L161.6438,141.60668 C163.265548,132.940156 147.696483,112.505845 153.535057,97.2602928 L153.535057,97.2602928 C159.372236,82.0147405 177.537772,79.0947564 178.836008,53.470292 L178.836008,53.470292 C180.131455,27.8458277 156.777159,8.70835764 135.694428,2.86978383 L135.694428,2.86978383 C129.894899,1.26337422 123.550138,0 116.690825,0 L116.690825,0 C98.6145337,0 76.9321874,8.76134685 52.0077383,43.09138 L52.0077383,43.09138 Z" id="path-12"></path>
        <path d="M52.0077383,43.09138 C30.9236122,85.2582377 9.51597303,127.750003 9.51597303,127.750003 L9.51597303,127.750003 C9.51597303,127.750003 -1.18784654,128.07491 0.108994547,132.290341 L0.108994547,132.290341 C1.40583564,136.507166 11.1377216,146.239052 20.5447001,136.507166 L20.5447001,136.507166 C29.9516786,126.778069 38.7088421,100.202588 44.8723234,99.543012 L44.8723234,99.543012 C51.0344102,98.880647 55.2512355,99.530462 54.6028149,105.044128 L54.6028149,105.044128 C53.9529999,110.559189 43.5740878,140.223383 42.6007598,141.609469 L42.6007598,141.609469 C42.6007598,141.609469 33.8435963,146.239052 33.5200833,150.780785 L33.5200833,150.780785 C33.1951758,155.321123 46.950058,156.942872 54.6683542,148.834129 L54.6683542,148.834129 C62.3866504,140.723992 70.4967878,106.665877 80.2272793,101.477118 L80.2272793,101.477118 C89.9591653,96.2869648 123.043952,81.0414125 135.694428,81.689833 L135.694428,81.689833 C135.694428,81.689833 124.342188,98.2322264 131.801116,112.180938 L131.801116,112.180938 C139.262832,126.128254 145.424919,141.609469 145.424919,141.609469 L145.424919,141.609469 C145.424919,141.609469 133.422864,150.455878 138.614412,152.726047 L138.614412,152.726047 C143.803171,154.99761 160.022051,150.274599 161.6438,141.60668 L161.6438,141.60668 C163.265548,132.940156 147.696483,112.505845 153.535057,97.2602928 L153.535057,97.2602928 C159.372236,82.0147405 177.537772,79.0947564 178.836008,53.470292 L178.836008,53.470292 C180.131455,27.8458277 156.777159,8.70835764 135.694428,2.86978383 L135.694428,2.86978383 C129.894899,1.26337422 123.550138,0 116.690825,0 L116.690825,0 C98.6145337,0 76.9321874,8.76134685 52.0077383,43.09138 L52.0077383,43.09138 Z" id="path-14"></path>
        <path d="M52.0077383,43.09138 C30.9236122,85.2582377 9.51597303,127.750003 9.51597303,127.750003 L9.51597303,127.750003 C9.51597303,127.750003 -1.18784654,128.07491 0.108994547,132.290341 L0.108994547,132.290341 C1.40583564,136.507166 11.1377216,146.239052 20.5447001,136.507166 L20.5447001,136.507166 C29.9516786,126.778069 38.7088421,100.202588 44.8723234,99.543012 L44.8723234,99.543012 C51.0344102,98.880647 55.2512355,99.530462 54.6028149,105.044128 L54.6028149,105.044128 C53.9529999,110.559189 43.5740878,140.223383 42.6007598,141.609469 L42.6007598,141.609469 C42.6007598,141.609469 33.8435963,146.239052 33.5200833,150.780785 L33.5200833,150.780785 C33.1951758,155.321123 46.950058,156.942872 54.6683542,148.834129 L54.6683542,148.834129 C62.3866504,140.723992 70.4967878,106.665877 80.2272793,101.477118 L80.2272793,101.477118 C89.9591653,96.2869648 123.043952,81.0414125 135.694428,81.689833 L135.694428,81.689833 C135.694428,81.689833 124.342188,98.2322264 131.801116,112.180938 L131.801116,112.180938 C139.262832,126.128254 145.424919,141.609469 145.424919,141.609469 L145.424919,141.609469 C145.424919,141.609469 133.422864,150.455878 138.614412,152.726047 L138.614412,152.726047 C143.803171,154.99761 160.022051,150.274599 161.6438,141.60668 L161.6438,141.60668 C163.265548,132.940156 147.696483,112.505845 153.535057,97.2602928 L153.535057,97.2602928 C159.372236,82.0147405 177.537772,79.0947564 178.836008,53.470292 L178.836008,53.470292 C180.131455,27.8458277 156.777159,8.70835764 135.694428,2.86978383 L135.694428,2.86978383 C129.894899,1.26337422 123.550138,0 116.690825,0 L116.690825,0 C98.6145337,0 76.9321874,8.76134685 52.0077383,43.09138" id="path-16"></path>
        <path d="M52.0077383,43.09138 C30.9236122,85.2582377 9.51597303,127.750003 9.51597303,127.750003 L9.51597303,127.750003 C9.51597303,127.750003 -1.18784654,128.07491 0.108994547,132.290341 L0.108994547,132.290341 C1.40583564,136.507166 11.1377216,146.239052 20.5447001,136.507166 L20.5447001,136.507166 C29.9516786,126.778069 38.7088421,100.202588 44.8723234,99.543012 L44.8723234,99.543012 C51.0344102,98.880647 55.2512355,99.530462 54.6028149,105.044128 L54.6028149,105.044128 C53.9529999,110.559189 43.5740878,140.223383 42.6007598,141.609469 L42.6007598,141.609469 C42.6007598,141.609469 33.8435963,146.239052 33.5200833,150.780785 L33.5200833,150.780785 C33.1951758,155.321123 46.950058,156.942872 54.6683542,148.834129 L54.6683542,148.834129 C62.3866504,140.723992 70.4967878,106.665877 80.2272793,101.477118 L80.2272793,101.477118 C89.9591653,96.2869648 123.043952,81.0414125 135.694428,81.689833 L135.694428,81.689833 C135.694428,81.689833 124.342188,98.2322264 131.801116,112.180938 L131.801116,112.180938 C139.262832,126.128254 145.424919,141.609469 145.424919,141.609469 L145.424919,141.609469 C145.424919,141.609469 133.422864,150.455878 138.614412,152.726047 L138.614412,152.726047 C143.803171,154.99761 160.022051,150.274599 161.6438,141.60668 L161.6438,141.60668 C163.265548,132.940156 147.696483,112.505845 153.535057,97.2602928 L153.535057,97.2602928 C159.372236,82.0147405 177.537772,79.0947564 178.836008,53.470292 L178.836008,53.470292 C180.131455,27.8458277 156.777159,8.70835764 135.694428,2.86978383 L135.694428,2.86978383 C129.894899,1.26337422 123.550138,0 116.690825,0 L116.690825,0 C98.6145337,0 76.9321874,8.76134685 52.0077383,43.09138" id="path-18"></path>
        <path d="M52.0077383,43.09138 C30.9236122,85.2582377 9.51597303,127.750003 9.51597303,127.750003 L9.51597303,127.750003 C9.51597303,127.750003 -1.18784654,128.07491 0.108994547,132.290341 L0.108994547,132.290341 C1.40583564,136.507166 11.1377216,146.239052 20.5447001,136.507166 L20.5447001,136.507166 C29.9516786,126.778069 38.7088421,100.202588 44.8723234,99.543012 L44.8723234,99.543012 C51.0344102,98.880647 55.2512355,99.530462 54.6028149,105.044128 L54.6028149,105.044128 C53.9529999,110.559189 43.5740878,140.223383 42.6007598,141.609469 L42.6007598,141.609469 C42.6007598,141.609469 33.8435963,146.239052 33.5200833,150.780785 L33.5200833,150.780785 C33.1951758,155.321123 46.950058,156.942872 54.6683542,148.834129 L54.6683542,148.834129 C62.3866504,140.723992 70.4967878,106.665877 80.2272793,101.477118 L80.2272793,101.477118 C89.9591653,96.2869648 123.043952,81.0414125 135.694428,81.689833 L135.694428,81.689833 C135.694428,81.689833 124.342188,98.2322264 131.801116,112.180938 L131.801116,112.180938 C139.262832,126.128254 145.424919,141.609469 145.424919,141.609469 L145.424919,141.609469 C145.424919,141.609469 133.422864,150.455878 138.614412,152.726047 L138.614412,152.726047 C143.803171,154.99761 160.022051,150.274599 161.6438,141.60668 L161.6438,141.60668 C163.265548,132.940156 147.696483,112.505845 153.535057,97.2602928 L153.535057,97.2602928 C159.372236,82.0147405 177.537772,79.0947564 178.836008,53.470292 L178.836008,53.470292 C180.131455,27.8458277 156.777159,8.70835764 135.694428,2.86978383 L135.694428,2.86978383 C129.894899,1.26337422 123.550138,0 116.690825,0 L116.690825,0 C98.6145337,0 76.9321874,8.76134685 52.0077383,43.09138 L52.0077383,43.09138 Z" id="path-20"></path>
        <path d="M52.0077383,43.09138 C30.9236122,85.2582377 9.51597303,127.750003 9.51597303,127.750003 L9.51597303,127.750003 C9.51597303,127.750003 -1.18784654,128.07491 0.108994547,132.290341 L0.108994547,132.290341 C1.40583564,136.507166 11.1377216,146.239052 20.5447001,136.507166 L20.5447001,136.507166 C29.9516786,126.778069 38.7088421,100.202588 44.8723234,99.543012 L44.8723234,99.543012 C51.0344102,98.880647 55.2512355,99.530462 54.6028149,105.044128 L54.6028149,105.044128 C53.9529999,110.559189 43.5740878,140.223383 42.6007598,141.609469 L42.6007598,141.609469 C42.6007598,141.609469 33.8435963,146.239052 33.5200833,150.780785 L33.5200833,150.780785 C33.1951758,155.321123 46.950058,156.942872 54.6683542,148.834129 L54.6683542,148.834129 C62.3866504,140.723992 70.4967878,106.665877 80.2272793,101.477118 L80.2272793,101.477118 C89.9591653,96.2869648 123.043952,81.0414125 135.694428,81.689833 L135.694428,81.689833 C135.694428,81.689833 124.342188,98.2322264 131.801116,112.180938 L131.801116,112.180938 C139.262832,126.128254 145.424919,141.609469 145.424919,141.609469 L145.424919,141.609469 C145.424919,141.609469 133.422864,150.455878 138.614412,152.726047 L138.614412,152.726047 C143.803171,154.99761 160.022051,150.274599 161.6438,141.60668 L161.6438,141.60668 C163.265548,132.940156 147.696483,112.505845 153.535057,97.2602928 L153.535057,97.2602928 C159.372236,82.0147405 177.537772,79.0947564 178.836008,53.470292 L178.836008,53.470292 C180.131455,27.8458277 156.777159,8.70835764 135.694428,2.86978383 L135.694428,2.86978383 C129.894899,1.26337422 123.550138,0 116.690825,0 L116.690825,0 C98.6145337,0 76.9321874,8.76134685 52.0077383,43.09138 L52.0077383,43.09138 Z" id="path-22"></path>
        <path d="M32.7981819,0.153389806 C16.9042091,2.10004589 35.3932585,18.3189262 34.0964175,27.4009972 L34.0964175,27.4009972 C32.7981819,36.4830682 21.8726443,51.5041136 9.49687588,55.6707385 L9.49687588,55.6707385 C-2.88168149,59.8373634 0.686723182,78.9748335 0.0369081846,88.381812 L0.0369081846,88.381812 C-0.61151236,97.787396 7.49862504,103.950877 7.49862504,103.950877 L7.49862504,103.950877 C7.49862504,103.950877 6.52529699,70.541183 13.0122913,67.9461064 L13.0122913,67.9461064 C19.4992857,65.3510298 51.9370464,42.9700626 52.2605594,29.0227458 L52.2605594,29.0227458 C52.567339,15.8200668 49.0937572,0.00139445278 35.2398687,0 L35.2398687,0 C34.4589752,0 33.6474037,0.0502003003 32.7981819,0.153389806" id="path-24"></path>
        <path d="M32.7981819,0.153389806 C16.9042091,2.10004589 35.3932585,18.3189262 34.0964175,27.4009972 L34.0964175,27.4009972 C32.7981819,36.4830682 21.8726443,51.5041136 9.49687588,55.6707385 L9.49687588,55.6707385 C-2.88168149,59.8373634 0.686723182,78.9748335 0.0369081846,88.381812 L0.0369081846,88.381812 C-0.61151236,97.787396 7.49862504,103.950877 7.49862504,103.950877 L7.49862504,103.950877 C7.49862504,103.950877 6.52529699,70.541183 13.0122913,67.9461064 L13.0122913,67.9461064 C19.4992857,65.3510298 51.9370464,42.9700626 52.2605594,29.0227458 L52.2605594,29.0227458 C52.567339,15.8200668 49.0937572,0.00139445278 35.2398687,0 L35.2398687,0 C34.4589752,0 33.6474037,0.0502003003 32.7981819,0.153389806 L32.7981819,0.153389806 Z" id="path-26"></path>
        <path d="M5.5436973,2.90464515 C-2.88995314,5.50111624 -0.727156875,35.7746862 5.5436973,51.345146 L5.5436973,51.345146 C8.70492176,59.1931263 12.6916623,63.4713074 15.8682257,65.7819157 L15.8682257,65.7819157 C18.5832253,67.7606442 21.9829012,68.5387488 25.3142489,68.1008906 L25.3142489,68.1008906 C43.7977205,65.668965 75.2035862,50.442935 78.4191943,35.7746862 L78.4191943,35.7746862 C81.8788316,19.9894807 63.4985495,7.87865823 46.4151084,2.90464515 L46.4151084,2.90464515 C39.1290926,0.783682465 32.1582231,0 25.9041024,0 L25.9041024,0 C17.4941577,0 10.381054,1.41815848 5.5436973,2.90464515" id="path-28"></path>
        <path d="M5.5436973,2.90464515 C-2.88995314,5.50111624 -0.727156875,35.7746862 5.5436973,51.345146 L5.5436973,51.345146 C8.70492176,59.1931263 12.6916623,63.4713074 15.8682257,65.7819157 L15.8682257,65.7819157 C18.5832253,67.7606442 21.9829012,68.5387488 25.3142489,68.1008906 L25.3142489,68.1008906 C43.7977205,65.668965 75.2035862,50.442935 78.4191943,35.7746862 L78.4191943,35.7746862 C81.8788316,19.9894807 63.4985495,7.87865823 46.4151084,2.90464515 L46.4151084,2.90464515 C39.1290926,0.783682465 32.1582231,0 25.9041024,0 L25.9041024,0 C17.4941577,0 10.381054,1.41815848 5.5436973,2.90464515" id="path-30"></path>
        <polygon id="path-32" points="0 0 4.00604349 0 4.00604349 7.02843785 0 7.02843785"></polygon>
    </defs>
    <g id="Page-1" stroke="none" stroke-width="1" fill="none" fill-rule="evenodd">
        <g id="Extra-Large" transform="translate(-317, -31)">
            <g id="cat" transform="translate(317, 31)">
                <rect id="Rectangle" fill="url(#linearGradient-1)" x="0" y="0" width="256" height="256"></rect>
                <g transform="translate(16, 21)">
                    <path d="M121.073363,110.363058 C110.376516,109.961456 96.1433361,135.079734 96.1433361,135.079734 C96.1433361,135.079734 83.7480453,150.856573 90.2950012,165.255692 C96.8405625,179.654811 101.99446,195.501373 101.99446,195.501373 C101.99446,195.501373 89.4471739,203.555732 94.479754,206.154992 C99.5123341,208.755647 116.001738,205.086841 118.178479,196.543029 C120.35522,187.997822 106.13459,166.602733 112.943703,151.765756 C116.648764,143.689085 123.761868,139.487599 129.950449,133.225112 C138.053615,125.024335 132.79095,110.897134 121.27277,110.371425 C121.205836,110.368636 121.140297,110.365847 121.073363,110.363058" id="Fill-1" fill="#8F9096"></path>
                    <g id="Group-9" transform="translate(88.3854, 110.3585)">
                        <g id="Group-5">
                            <mask id="mask-3" fill="white">
                                <use xlink:href="#path-2"></use>
                            </mask>
                            <g id="Clip-4"></g>
                            <path d="M3.47642724,83.8746617 C1.12259094,84.5230822 -7.57739998,97.9307457 16.4253158,97.7146055 C40.429426,97.4984654 34.5908522,78.252228 33.5087569,76.9553869 C33.4711066,76.9079755 33.4250897,76.8535919 33.3721005,76.792236 C27.5962771,70.0891014 17.2815098,69.8436777 11.0761949,76.1507877 L3.47642724,83.8746617 Z" id="Fill-3" fill="#B9BAC0" mask="url(#mask-3)"></path>
                        </g>
                        <g id="Group-8">
                            <mask id="mask-5" fill="white">
                                <use xlink:href="#path-4"></use>
                            </mask>
                            <g id="Clip-7"></g>
                            <path d="M-2.26188541,37.2819502 C-2.26188541,37.2819502 5.15939231,42.8569724 10.7985594,41.3718802 C16.4391209,39.8881825 6.94010851,48.1224262 -2.55890386,48.3092828 C-2.55890386,48.3092828 5.94586368,51.4300682 15.2510471,46.4184049 C24.557625,41.4067415 13.5428424,57.6981334 -8.29968675e-05,55.0263619 C-8.29968675e-05,55.0263619 6.87178033,58.0871858 14.9554231,56.8084726 C23.0376715,55.5283649 10.8710709,69.8689173 -8.29968675e-05,64.8223927 C-10.8698425,59.7758681 -2.26188541,37.2819502 -2.26188541,37.2819502" id="Fill-6" fill="#71757F" mask="url(#mask-5)"></path>
                        </g>
                    </g>
                    <path d="M11.8462947,183.421089 C11.8462947,183.421089 1.14247517,183.745996 2.43931626,187.962822 C3.7375518,192.179647 13.4680433,201.910138 22.8750218,192.179647 C32.2820003,182.447761 41.0391638,155.873674 47.2026451,155.212704 C53.364732,154.553127 57.5815572,155.201548 56.9331366,160.715214 C56.2847161,166.230275 45.9044096,195.894469 44.9310815,197.280555 C44.9310815,197.280555 36.173918,201.910138 35.8490105,206.451871 C35.5254975,210.992209 49.2803797,212.613958 56.9986759,204.505215 C64.7183665,196.396472 72.8271095,162.336963 82.557601,157.148204 C92.289487,151.958051 125.374274,136.712498 138.024749,137.360919 C138.024749,137.360919 126.672509,153.903312 134.132832,167.852024 C141.593154,181.79934 147.755241,197.280555 147.755241,197.280555 C147.755241,197.280555 135.75458,206.126964 140.943339,208.397133 C146.133492,210.668696 162.352373,205.94429 163.974121,197.277766 C165.59587,188.611242 150.026805,168.175537 155.865378,152.931379 C161.703952,137.685827 179.868094,134.765842 181.164935,109.141378 C182.463171,83.5169137 159.108876,64.3794436 138.024749,58.5408698 C116.940623,52.7009016 88.7210823,51.4040605 54.33806,98.7610715 C33.2539339,140.929324 11.8462947,183.421089 11.8462947,183.421089" id="Fill-10" fill="#8F9096"></path>
                    <g id="Group-39" transform="translate(2.3305, 55.6708)">
                        <g id="Group-14">
                            <mask id="mask-7" fill="white">
                                <use xlink:href="#path-6"></use>
                            </mask>
                            <g id="Clip-13"></g>
                            <path d="M135.007102,140.709768 C132.653266,141.358189 123.953275,154.765852 147.95599,154.549712 C171.960101,154.333572 166.121527,135.087335 165.039432,133.789099 C165.000387,133.743082 164.955764,133.688698 164.902775,133.627343 C159.126952,126.924208 148.812185,126.678784 142.60687,132.985894 L135.007102,140.709768 Z" id="Fill-12" fill="#B9BAC0" mask="url(#mask-7)"></path>
                        </g>
                        <g id="Group-17">
                            <mask id="mask-9" fill="white">
                                <use xlink:href="#path-8"></use>
                            </mask>
                            <g id="Clip-16"></g>
                            <path d="M32.616199,141.801904 C30.2623627,142.450324 21.5623717,155.857988 45.5650875,155.641848 C69.5691978,155.425707 63.730624,136.17947 62.6485286,134.882629 C62.6094839,134.835218 62.5648614,134.780834 62.5118722,134.719478 C56.7360488,128.016343 46.4212815,127.77092 40.2159667,134.07803 L32.616199,141.801904 Z" id="Fill-15" fill="#B9BAC0" mask="url(#mask-9)"></path>
                        </g>
                        <g id="Group-20">
                            <mask id="mask-11" fill="white">
                                <use xlink:href="#path-10"></use>
                            </mask>
                            <g id="Clip-19"></g>
                            <path d="M-1.29968166,128.796121 C-3.65351796,129.444542 -12.3535089,142.852206 11.6492069,142.636065 C35.6533171,142.419925 29.8147433,123.173688 28.732648,121.876847 C28.6949977,121.83083 28.6489808,121.775052 28.5959916,121.713696 C22.8201682,115.010561 12.5054009,114.765138 6.30008602,121.072247 L-1.29968166,128.796121 Z" id="Fill-18" fill="#B9BAC0" mask="url(#mask-11)"></path>
                        </g>
                        <g id="Group-23">
                            <mask id="mask-13" fill="white">
                                <use xlink:href="#path-12"></use>
                            </mask>
                            <g id="Clip-22"></g>
                            <path d="M44.8717656,99.5425937 C44.8717656,99.5425937 36.4074372,94.0163773 36.5845327,80.0690606 C36.5845327,80.0690606 47.2116574,93.3679568 54.962026,95.3132184 C62.7123945,97.2598745 46.5953093,118.344001 46.5953093,118.344001 L44.8717656,99.5425937 Z" id="Fill-21" fill="#FFFFFF" mask="url(#mask-13)"></path>
                        </g>
                        <g id="Group-26">
                            <mask id="mask-15" fill="white">
                                <use xlink:href="#path-14"></use>
                            </mask>
                            <g id="Clip-25"></g>
                            <path d="M73.4160747,109.574845 C73.4160747,109.574845 81.1232152,86.2079995 93.8127356,79.4086477 C106.500861,72.6079015 154.18278,64.3360076 154.18278,64.3360076 C154.18278,64.3360076 140.235463,77.4731473 135.69373,81.6899725 C131.153392,85.9067977 86.0553947,108.93758 86.0553947,108.93758 L73.4160747,109.574845 Z" id="Fill-24" fill="#B9BAC0" mask="url(#mask-15)"></path>
                        </g>
                        <g id="Group-29">
                            <mask id="mask-17" fill="white">
                                <use xlink:href="#path-16"></use>
                            </mask>
                            <g id="Clip-28"></g>
                            <path d="M63.6077727,19.7066856 C63.6077727,19.7066856 81.2252892,26.0054289 94.3833456,34.6133859 C107.540008,43.221343 89.16112,18.4335503 73.4163536,14.204175 C73.4163536,14.204175 103.512828,16.0811084 115.555322,37.2851574 C127.596422,58.4892065 121.491508,9.97619411 83.7924767,5.81933036 C83.7924767,5.81933036 111.992495,0.477181743 126.835051,27.7861451 C141.677606,55.0951084 142.270249,7.53869064 96.854316,0.000278890557 C96.854316,0.000278890557 120.00781,-1.75115381 133.365273,14.204175 C146.724131,30.1608982 148.207829,19.4752065 141.083569,11.7569103 C133.95931,4.03861416 125.943996,0.742127772 118.227094,-1.91430478 C110.508798,-4.56934289 75.7785566,5.09700382 63.6077727,19.7066856" id="Fill-27" fill="#71757F" mask="url(#mask-17)"></path>
                        </g>
                        <g id="Group-32">
                            <mask id="mask-19" fill="white">
                                <use xlink:href="#path-18"></use>
                            </mask>
                            <g id="Clip-31"></g>
                            <path d="M128.616046,88.0449122 C128.616046,88.0449122 132.474497,90.7166837 140.192793,90.7166837 C147.911089,90.7166837 127.132348,97.840943 127.132348,97.840943 C127.132348,97.840943 133.662571,100.512715 138.709095,100.809733 C143.75562,101.105357 132.178873,107.339955 126.83533,106.151882 C126.83533,106.151882 131.287817,109.41769 139.895775,108.229616 C148.503732,107.042937 136.926985,115.353875 130.099744,115.353875 C123.272503,115.353875 128.616046,88.0449122 128.616046,88.0449122" id="Fill-30" fill="#71757F" mask="url(#mask-19)"></path>
                        </g>
                        <g id="Group-35">
                            <mask id="mask-21" fill="white">
                                <use xlink:href="#path-20"></use>
                            </mask>
                            <g id="Clip-34"></g>
                            <path d="M51.1405281,106.585696 C51.1405281,106.585696 63.9053489,109.417829 63.311312,112.386619 C62.7172751,115.354015 50.7933094,112.335025 50.7933094,112.335025 C50.7933094,112.335025 61.2335774,117.134731 60.9365589,118.916842 C60.6395405,120.697558 46.5960065,118.343722 46.5960065,118.343722 L51.1405281,106.585696 Z" id="Fill-33" fill="#71757F" mask="url(#mask-21)"></path>
                        </g>
                        <g id="Group-38">
                            <mask id="mask-23" fill="white">
                                <use xlink:href="#path-22"></use>
                            </mask>
                            <g id="Clip-37"></g>
                            <path d="M27.0940265,89.2322887 C27.0940265,89.2322887 34.5180931,92.4980971 33.3300194,96.0595295 C32.1419456,99.6223564 22.6443277,95.1698687 22.6443277,95.1698687 C22.6443277,95.1698687 30.1423003,99.9179804 30.6972925,104.371863 C31.2522847,108.82435 19.3785192,102.996932 19.3785192,102.996932 L27.0940265,89.2322887 Z" id="Fill-36" fill="#71757F" mask="url(#mask-23)"></path>
                        </g>
                    </g>
                    <path d="M179.219395,103.951504 C179.219395,103.951504 178.246067,70.5418094 184.733061,67.9467328 C191.22145,65.3516561 223.657816,42.9706889 223.981329,29.0233722 C224.306237,15.074661 220.414319,-1.79124545 204.520346,0.15401618 C188.626373,2.10067227 207.115423,18.3181582 205.817187,27.4016236 C204.520346,36.4836946 193.594808,51.50474 181.217646,55.6713649 C168.839088,59.8379898 172.407493,78.9754598 171.759072,88.3824383 C171.110652,97.7880224 179.219395,103.951504 179.219395,103.951504" id="Fill-40" fill="#8F9096"></path>
                    <g id="Group-48" transform="translate(171.7212, 0.0001)">
                        <g id="Group-44">
                            <mask id="mask-25" fill="white">
                                <use xlink:href="#path-24"></use>
                            </mask>
                            <g id="Clip-43"></g>
                            <path d="M46.5262907,-11.3950498 C46.2515835,-11.4006276 45.9782707,-11.3992332 45.7063524,-11.3922609 C35.4208687,-11.0966369 23.155262,-1.78029787 21.4094071,8.6432367 C19.8852702,17.7378578 23.2235902,28.8460686 31.9375257,33.3724624 C34.8491431,34.8854437 38.144235,35.5031862 41.4100434,35.8169381 C44.8794419,36.1502123 51.4849648,36.8809056 54.534633,34.7794652 C57.608007,32.6612915 58.4363119,27.0277022 58.7960807,23.6754377 C59.8405259,13.9491295 58.49209,3.97600323 54.9027686,-5.1228012 C54.2501647,-6.77522775 53.4846101,-8.4569378 52.1319909,-9.61015026 C50.6092484,-10.9097803 48.5496417,-11.3518218 46.5262907,-11.3950498" id="Fill-42" fill="#B9BAC0" mask="url(#mask-25)"></path>
                        </g>
                        <g id="Group-47">
                            <mask id="mask-27" fill="white">
                                <use xlink:href="#path-26"></use>
                            </mask>
                            <g id="Clip-46"></g>
                            <path d="M20.9682023,38.9307512 C20.9682023,38.9307512 35.2167208,38.6337327 38.7781532,41.6025227 C42.3409801,44.5713127 23.0459369,43.0862205 23.0459369,43.0862205 C23.0459369,43.0862205 32.2479308,46.6490473 30.4672146,48.726782 C28.6864984,50.8045166 17.9994123,48.1327451 17.9994123,48.1327451 C17.9994123,48.1327451 25.42069,51.960518 24.2340107,53.7565732 C23.0459369,55.5540228 10.875153,51.975857 10.875153,51.975857 C10.875153,51.975857 19.1874861,57.334739 16.812733,57.9287759 C14.4379799,58.5228128 5.53300439,55.6711569 5.53300439,55.6711569 L20.9682023,38.9307512 Z" id="Fill-45" fill="#71757F" mask="url(#mask-27)"></path>
                        </g>
                    </g>
                    <g id="Group-59" transform="translate(17.8713, 53.7575)">
                        <path d="M2.06230648,32.2362829 C2.06230648,32.2362829 15.707027,1.10651892 20.4648999,0.0258180141 C25.2227728,-1.05627735 28.2501298,32.2362829 28.2501298,32.2362829 L2.06230648,32.2362829 Z" id="Fill-49" fill="#8F9096"></path>
                        <path d="M20.7352843,32.2362829 C20.7352843,32.2362829 21.9359081,10.4200691 19.6001997,6.72895255 C17.2630968,3.03783603 11.0968266,13.2257081 9.05813665,17.3728107 C7.01944668,21.5213077 2.06216703,32.2362829 2.06216703,32.2362829 L20.7352843,32.2362829 Z" id="Fill-51" fill="#F5909A"></path>
                        <path d="M57.8752792,35.7419372 C57.8752792,35.7419372 81.4889426,17.9738198 93.2525463,22.2980179 C105.01615,26.6236104 76.4089511,66.2497752 76.4089511,66.2497752 L57.8752792,35.7419372 Z" id="Fill-53" fill="#8F9096"></path>
                        <path d="M96.0887286,27.2116512 C84.0155516,24.0657657 61.8144689,42.0067952 61.8144689,42.0067952 L63.6230741,45.202881 L76.4088117,66.2493569 C76.4088117,66.2493569 96.0998795,38.9738604 96.0887286,27.2116512" id="Fill-55" fill="#F5909A"></path>
                        <path d="M25.3142489,93.7645598 C21.9829012,94.202418 18.5846197,93.4243133 15.8682257,91.4455848 C12.6916623,89.1349765 8.70631621,84.8581898 5.5436973,77.0088151 C-0.727156875,61.4383553 -2.88995314,31.1647854 5.5436973,28.5697087 C13.9773477,25.9746321 29.3316674,23.5956957 46.413714,28.5697087 C63.497155,33.5437218 81.8788316,45.6531498 78.4177998,61.4383553 C75.2035862,76.1066042 43.799115,91.3340286 25.3142489,93.7645598" id="Fill-57" fill="#8F9096"></path>
                    </g>
                    <g id="Group-66" transform="translate(17.8711, 79.4211)">
                        <g id="Group-62">
                            <mask id="mask-29" fill="white">
                                <use xlink:href="#path-28"></use>
                            </mask>
                            <g id="Clip-61"></g>
                            <path d="M25.3213606,46.2627839 C25.3213606,46.2627839 20.7670778,43.6677073 15.1557998,45.6143634 C9.54452178,47.559625 2.40910688,50.6413657 -3.5926179,43.8294638 C-9.59294823,37.0189564 -8.45786367,70.7521637 18.1399287,74.1588119 C44.7391156,77.5640656 58.5441982,61.6017646 60.8854844,54.5806948 C60.8854844,54.5806948 43.7657876,60.8599157 37.9272138,55.3448549 C32.08864,49.8311886 31.6912209,45.4526069 25.3213606,46.2627839" id="Fill-60" fill="#B9BAC0" mask="url(#mask-29)"></path>
                        </g>
                        <g id="Group-65">
                            <mask id="mask-31" fill="white">
                                <use xlink:href="#path-30"></use>
                            </mask>
                            <g id="Clip-64"></g>
                            <path d="M32.7369211,-2.71653347 C32.7369211,-2.71653347 19.5997814,12.9850049 35.4937542,18.2713754 C51.387727,23.5577459 61.815445,6.57191653 61.815445,6.57191653 C61.815445,6.57191653 42.6138301,-5.49567787 32.7369211,-2.71653347" id="Fill-63" fill="#B9BAC0" mask="url(#mask-31)"></path>
                        </g>
                    </g>
                    <g id="Group-116" transform="translate(0, 100.2129)">
                        <path d="M37.4589063,23.9079795 C37.4589063,23.9079795 44.8871563,23.3027869 48.926886,27.0552594 L43.5707928,30.7463759 C42.0550226,31.7922155 39.9591601,31.1061447 39.3553621,29.3658677 L37.4589063,23.9079795 Z" id="Fill-67" fill="#4D5056"></path>
                        <path d="M73.7807757,21.5623704 C73.7807757,26.1152588 70.0896592,29.8063753 65.5367709,29.8063753 C60.9838825,29.8063753 57.292766,26.1152588 57.292766,21.5623704 C57.292766,17.0094821 60.9838825,13.3183656 65.5367709,13.3183656 C70.0896592,13.3183656 73.7807757,17.0094821 73.7807757,21.5623704" id="Fill-69" fill="#FFFFFF"></path>
                        <path d="M65.536492,21.5623704 L71.3597268,21.5623704 C71.3597268,24.7570618 68.7311833,27.3856053 65.536492,27.3856053 C62.3431951,27.3856053 59.7146516,24.7570618 59.7146516,21.5623704 C59.7146516,18.3690735 62.3431951,15.74053 65.536492,15.74053 C67.1666073,15.74053 68.7228166,16.4238119 69.8244343,17.6244358 L65.536492,21.5623704 Z" id="Fill-71" fill="#4D5056"></path>
                        <path d="M38.0882228,13.3182261 C38.0882228,17.4151284 34.7680307,20.7353205 30.6711284,20.7353205 C26.5742262,20.7353205 23.2540341,17.4151284 23.2540341,13.3182261 C23.2540341,9.22132383 26.5742262,5.90113175 30.6711284,5.90113175 C34.7680307,5.90113175 38.0882228,9.22132383 38.0882228,13.3182261" id="Fill-73" fill="#FFFFFF"></path>
                        <path d="M30.6711284,13.3182261 L35.9100876,13.3182261 C35.9100876,16.1921933 33.5450956,18.5571852 30.6711284,18.5571852 C27.7971613,18.5571852 25.4321693,16.1921933 25.4321693,13.3182261 C25.4321693,10.4442589 27.7971613,8.079267 30.6711284,8.079267 C32.1366983,8.079267 33.5381234,8.69561513 34.5295793,9.77492159 L30.6711284,13.3182261 Z" id="Fill-75" fill="#4D5056"></path>
                        <path d="M32.6057922,31.2404305 C32.6057922,31.2404305 32.4440357,33.9038354 35.2008689,34.7154069 C37.957702,35.5269784 41.6878632,29.8069331 41.6878632,29.8069331 C41.6878632,29.8069331 40.0661146,34.5536503 44.7696039,36.985576 C49.4730931,39.4188961 50.6081777,35.2020709 50.6081777,35.2020709" id="Stroke-77" stroke="#4D5056" stroke-linecap="round" stroke-linejoin="round"></path>
                        <path d="M67.3130248,5.90099231 C67.3130248,5.90099231 78.7600877,5.68485213 79.6860044,17.3619997" id="Stroke-79" stroke="#4D5056" stroke-width="2" stroke-linecap="round" stroke-linejoin="round"></path>
                        <path d="M37.4589063,0.927258116 C37.4589063,0.927258116 28.3893854,-3.18219424 21.6848564,5.9012712" id="Stroke-81" stroke="#4D5056" stroke-width="2" stroke-linecap="round" stroke-linejoin="round"></path>
                        <line x1="26.8752885" y1="27.5561468" x2="11.090083" y2="20.7358783" id="Stroke-83" stroke="#4D5056" stroke-linecap="round" stroke-linejoin="round"></line>
                        <line x1="26.8752885" y1="29.8066542" x2="16.0627016" y2="27.5560074" id="Stroke-85" stroke="#4D5056" stroke-linecap="round" stroke-linejoin="round"></line>
                        <line x1="59.7140938" y1="37.7420666" x2="81.5846913" y2="37.7420666" id="Stroke-87" stroke="#4D5056" stroke-linecap="round" stroke-linejoin="round"></line>
                        <line x1="59.7140938" y1="40.5000154" x2="71.9113723" y2="43.3349379" id="Stroke-89" stroke="#4D5056" stroke-linecap="round" stroke-linejoin="round"></line>
                        <path d="M143.214763,106.62148 C142.914956,106.58383 142.38088,106.684231 141.968122,106.81252 C141.531659,106.950571 141.113323,107.155556 140.732637,107.437235 C139.951744,107.982466 139.403724,108.922327 139.159695,110.010001 C139.067661,109.468953 138.995149,108.890255 139.084394,108.300401 C139.147144,107.707759 139.345157,107.10675 139.654725,106.553152 C139.96011,105.995371 140.372868,105.483607 140.853955,105.04296 C141.361535,104.599524 141.821705,104.236966 142.566343,103.90927 L142.800611,103.80608 C143.546643,103.476989 144.418176,103.815841 144.745872,104.561874 C145.073569,105.307906 144.734717,106.179439 143.990079,106.507135 C143.739077,106.617297 143.468554,106.652158 143.214763,106.62148" id="Fill-91" fill="#4D5056"></path>
                        <path d="M148.804288,105.146149 C148.47938,105.493368 148.130767,105.945171 147.81841,106.371873 C147.500474,106.808337 147.200667,107.261534 146.920382,107.73007 C146.368179,108.669931 145.89267,109.666965 145.647247,110.779738 C145.425529,109.659993 145.453418,108.462158 145.597046,107.290818 C145.672347,106.703753 145.774142,106.118083 145.901037,105.533807 C146.034905,104.942559 146.168772,104.388961 146.382123,103.762852 L146.40304,103.702891 C146.658225,102.955464 147.472585,102.555256 148.221407,102.810441 C148.970228,103.06702 149.370436,103.881381 149.113856,104.630202 C149.046923,104.82682 148.936761,105.003915 148.804288,105.146149" id="Fill-93" fill="#4D5056"></path>
                        <path d="M153.60762,104.930567 C153.406819,105.166229 153.182312,105.604088 153.010794,105.984773 C152.83091,106.382192 152.681703,106.801922 152.564569,107.236992 C152.32054,108.10713 152.227112,109.040019 152.296834,110.010558 C151.78507,109.19062 151.389045,108.240998 151.170116,107.228625 C151.055771,106.722439 150.979076,106.200913 150.942821,105.669627 C150.913537,105.120212 150.889831,104.634943 150.986049,103.978156 L151.018121,103.757832 C151.13665,102.950444 151.886865,102.391268 152.695648,102.509797 C153.503036,102.628325 154.062211,103.378541 153.943683,104.185929 C153.903244,104.470397 153.779138,104.726977 153.60762,104.930567" id="Fill-95" fill="#4D5056"></path>
                        <path d="M106.935982,103.728688 C106.287562,104.358981 105.62938,105.098041 105.049288,105.845467 C104.473379,106.608233 103.911414,107.390521 103.642285,108.347116 C103.441484,107.358449 103.59069,106.293087 103.770575,105.287686 C103.967192,104.262763 104.218194,103.289435 104.564018,102.260329 L104.572385,102.238018 C104.826175,101.485013 105.640536,101.080622 106.39354,101.334413 C107.146545,101.588203 107.550936,102.403958 107.297146,103.155568 C107.221845,103.37868 107.093556,103.575298 106.935982,103.728688" id="Fill-97" fill="#4D5056"></path>
                        <path d="M100.75772,104.209914 C100.420262,104.274058 99.9559095,104.467887 99.5668572,104.65335 C99.1638603,104.849967 98.774808,105.081447 98.4108558,105.354759 C97.6941071,105.902779 97.077759,106.641839 96.8309408,107.637479 C96.5980672,106.646023 96.8169963,105.496994 97.3092381,104.497171 C97.5560563,103.997957 97.8572581,103.522448 98.1975045,103.07204 C98.5544845,102.616054 98.8807864,102.215846 99.3897617,101.779382 L99.529207,101.659459 C100.142766,101.133751 101.067288,101.204868 101.594392,101.818427 C102.1201,102.431986 102.050378,103.356509 101.435424,103.883612 C101.237412,104.053735 100.99896,104.162502 100.75772,104.209914" id="Fill-99" fill="#4D5056"></path>
                        <path d="M95.1262223,104.38687 C95.0230328,104.279497 94.601908,104.255791 94.3021007,104.265552 C93.9716154,104.280891 93.6230022,104.335275 93.2799668,104.448226 C92.5925016,104.668549 91.9106142,105.092463 91.3165773,105.671161 C91.5048284,104.86935 91.8645972,104.052201 92.4530563,103.325691 C92.7458914,102.961739 93.0986879,102.629859 93.4975014,102.33563 C93.9297818,102.0414 94.278395,101.789004 94.9658602,101.602147 L95.975444,101.328835 C96.9599277,101.063889 97.9723004,101.645376 98.2386409,102.628465 C98.5049814,103.611554 97.9234946,104.625321 96.9390109,104.890267 C96.2668847,105.07294 95.578025,104.855406 95.1262223,104.38687" id="Fill-101" fill="#4D5056"></path>
                        <path d="M37.9469647,106.499466 C37.6806243,106.354443 37.1479433,106.252648 36.7170574,106.22197 C36.2610713,106.189897 35.7953241,106.227547 35.339338,106.350259 C34.4120269,106.570583 33.5572274,107.245498 32.9325125,108.167231 C33.0454632,107.630367 33.1904863,107.064219 33.4888992,106.549666 C33.7650008,106.019774 34.1693921,105.53311 34.6602395,105.131507 C35.148298,104.725722 35.7200236,104.39942 36.3280051,104.166546 C36.9638755,103.93925 37.5244455,103.770522 38.3374115,103.738449 L38.5939908,103.727294 C39.4083513,103.695221 40.094422,104.329697 40.1264944,105.144058 C40.1585669,105.958418 39.5240908,106.645883 38.7097304,106.677956 C38.4364177,106.687717 38.1714716,106.620783 37.9469647,106.499466" id="Fill-103" fill="#4D5056"></path>
                        <path d="M43.6884846,107.17452 C43.2589932,107.37811 42.7695403,107.670945 42.3219209,107.954019 C41.8659348,108.244066 41.4211044,108.556423 40.988824,108.888303 C40.1312356,109.560429 39.3238474,110.314828 38.687977,111.260267 C38.8901726,110.136338 39.3559198,109.033326 39.9178843,107.994458 C40.2037471,107.477117 40.5133156,106.968141 40.8451954,106.473111 C41.1868363,105.971108 41.5131383,105.50536 41.9426298,105.000568 L41.9830689,104.953157 C42.4948331,104.349359 43.3984385,104.276847 44.0022365,104.788612 C44.6046401,105.300376 44.6785461,106.205376 44.1653875,106.807779 C44.03152,106.965352 43.8641857,107.090853 43.6884846,107.17452" id="Fill-105" fill="#4D5056"></path>
                        <g id="Group-109" transform="translate(45.0126, 105.951)">
                            <mask id="mask-33" fill="white">
                                <use xlink:href="#path-32"></use>
                            </mask>
                            <g id="Clip-108"></g>
                            <path d="M3.22431332,2.78246857 C2.95100057,2.92888611 2.58147058,3.25379361 2.28305769,3.54383979 C1.97070027,3.84922495 1.67786518,4.18528807 1.40873579,4.54645134 C0.862110301,5.26738343 0.434013296,6.1012662 0.143967117,7.0285773 C-0.0317339337,6.07895495 -0.0526507255,5.0498488 0.114683609,4.02771491 C0.192772965,3.51455628 0.312695904,3.00139766 0.474452427,2.49381684 C0.647364572,1.9722915 0.803543284,1.51212208 1.13402859,0.936213082 L1.24419036,0.743778598 C1.64997612,0.0353965834 2.55358153,-0.210027107 3.26196354,0.195758654 C3.97174001,0.601544414 4.21576925,1.50514982 3.80998349,2.21353183 C3.6677493,2.46174443 3.45858139,2.65557337 3.22431332,2.78246857" id="Fill-107" fill="#4D5056" mask="url(#mask-33)"></path>
                        </g>
                        <path d="M13.1358847,95.1781824 C12.2336737,95.235355 11.2533734,95.3692224 10.3260623,95.5616569 C9.3931734,95.7680359 8.45749558,95.9981206 7.63197954,96.5489295 C8.12143246,95.6676353 8.92742617,94.9536755 9.71668645,94.3066494 C10.5324413,93.65544 11.3551685,93.0781365 12.2866629,92.5217498 L12.3075797,92.5091998 C12.9880727,92.1020195 13.8707613,92.3237375 14.279336,93.005625 C14.6865162,93.6875124 14.4634037,94.570201 13.7829108,94.9773812 C13.5807151,95.0973041 13.3548138,95.1628434 13.1358847,95.1781824" id="Fill-110" fill="#4D5056"></path>
                        <path d="M8.12631305,91.5305728 C7.82790015,91.3604496 7.34820839,91.2056653 6.93266146,91.0941091 C6.49898665,90.9811584 6.05276176,90.9058579 5.59817015,90.87518 C4.69735365,90.8263741 3.7477313,90.9881307 2.91384854,91.5849565 C3.38099022,90.6799566 4.2943568,89.9492633 5.31788514,89.5100107 C5.82964931,89.2896872 6.36790809,89.1237473 6.91871694,89.0024299 C7.48625922,88.8880848 7.99384003,88.7960509 8.66596628,88.7946564 L8.84863959,88.7932598 C9.65742221,88.7918675 10.3142095,89.4472603 10.3156061,90.256043 C10.3169984,91.0648256 9.66300002,91.7216128 8.8542174,91.7230073 C8.59206028,91.7230073 8.33966432,91.6504957 8.12631305,91.5305728" id="Fill-112" fill="#4D5056"></path>
                        <path d="M3.7301612,88.0063723 C3.72179448,87.8585603 3.41640932,87.5657252 3.18214125,87.3788685 C2.92137858,87.1752784 2.62157124,86.9912106 2.28690257,86.8531598 C1.62174859,86.5742693 0.826910501,86.4543463 0,86.5073355 C0.663759526,86.0206715 1.46835878,85.6344081 2.38730317,85.4628904 C2.84607813,85.3764343 3.3285588,85.3527286 3.82498399,85.3889844 C4.34511488,85.446157 4.77321188,85.4810183 5.41744907,85.7864034 L6.3614936,86.2340228 C7.28322689,86.6704865 7.67506813,87.7707098 7.23860441,88.6910486 C6.80214068,89.6113874 5.70191744,90.0046231 4.7815786,89.5681594 C4.15128594,89.268352 3.76920588,88.6561873 3.7301612,88.0063723" id="Fill-114" fill="#4D5056"></path>
                    </g>
                </g>
            </g>
        </g>
    </g>
</svg>