<?xml version="1.0" encoding="UTF-8"?>
<svg width="256px" height="256px" viewBox="0 0 256 256" version="1.1" xmlns="http://www.w3.org/2000/svg" xmlns:xlink="http://www.w3.org/1999/xlink">
    <title>dog</title>
    <defs>
        <linearGradient x1="50%" y1="0%" x2="50%" y2="100%" id="linearGradient-1">
            <stop stop-color="#5DD662" offset="0%"></stop>
            <stop stop-color="#4CAF50" offset="100%"></stop>
        </linearGradient>
        <polygon id="path-2" points="0 0 15.5281101 0 15.5281101 49.0140723 0 49.0140723"></polygon>
        <path d="M16.7772521,16.7390069 C11.4087444,47.5448459 0.514700242,111.106634 0.044955822,122.379158 L0.044955822,122.379158 C-0.577791066,137.365348 4.82561189,161.063282 44.3767499,158.282396 L44.3767499,158.282396 C84.3385788,155.473324 83.0890586,120.819607 76.5341108,98.3403233 L76.5341108,98.3403233 C71.8581406,82.3113015 61.784136,39.1297102 56.3901279,15.6760424 L56.3901279,15.6760424 C54.2776202,6.49723639 46.1094358,0 36.6903891,0 L36.6903891,0 C26.8660201,0 18.4629635,7.05958757 16.7772521,16.7390069 L16.7772521,16.7390069 Z" id="path-4"></path>
        <path d="M16.6504265,8.73724687 C4.16193556,26.2211342 16.6504265,64.9334429 16.6504265,64.9334429 L16.6504265,64.9334429 C16.6504265,64.9334429 1.19204816e-15,68.2646019 1.19204816e-15,77.8379932 L1.19204816e-15,77.8379932 C1.19204816e-15,87.4113845 25.8077584,88.6058774 36.0065809,73.2318136 L36.0065809,73.2318136 C44.9988312,59.6763318 47.5488723,27.1404911 43.6016771,10.9557827 L43.6016771,10.9557827 C42.3964471,6.01541348 38.7243879,1.92595278 33.8390459,0.516719516 L33.8390459,0.516719516 C32.7304491,0.19729331 31.5332718,0 30.2716726,0 L30.2716726,0 C26.1916067,-0.00134147294 21.4190034,2.06284972 16.6504265,8.73724687" id="path-6"></path>
        <path d="M16.6504265,8.73724687 C4.16193556,26.2211342 16.6504265,64.9334429 16.6504265,64.9334429 L16.6504265,64.9334429 C16.6504265,64.9334429 1.19204816e-15,68.2646019 1.19204816e-15,77.8379932 L1.19204816e-15,77.8379932 C1.19204816e-15,87.4113845 25.8077584,88.6058774 36.0065809,73.2318136 L36.0065809,73.2318136 C44.9988312,59.6763318 47.5488723,27.1404911 43.6016771,10.9557827 L43.6016771,10.9557827 C42.3964471,6.01541348 38.7243879,1.92595278 33.8390459,0.516719516 L33.8390459,0.516719516 C32.7304491,0.19729331 31.5332718,0 30.2716726,0 L30.2716726,0 C26.1916067,-0.00134147294 21.4190034,2.06284972 16.6504265,8.73724687" id="path-8"></path>
        <path d="M27.954856,0 L17.6526898,79.3170164 C17.6526898,79.3170164 2.6678428,80.2551631 0.168802484,92.7423119 L0.168802484,92.7423119 C-2.01886439,103.679304 17.5896098,102.162701 28.156175,92.5973622 L28.156175,92.5973622 C30.6283728,90.3573524 32.1047124,87.223486 32.4724552,83.9070904 L32.4724552,83.9070904 L40.4420048,0" id="path-10"></path>
        <path d="M27.954856,0 L17.6526898,79.3170164 C17.6526898,79.3170164 2.6678428,80.2551631 0.168802484,92.7423119 L0.168802484,92.7423119 C-2.01886439,103.679304 17.5896098,102.162701 28.156175,92.5973622 L28.156175,92.5973622 C30.6283728,90.3573524 32.1047124,87.223486 32.4724552,83.9070904 L32.4724552,83.9070904 L40.4420048,0" id="path-12"></path>
        <path d="M11.5631639,0.516719516 C6.67647976,1.92595278 3.00442053,6.01541348 1.79919056,10.9557827 L1.79919056,10.9557827 C-2.14666257,27.1404911 0.403378567,59.6763318 9.39428677,73.2318136 L9.39428677,73.2318136 C19.5931092,88.6058774 45.4008676,87.4113845 45.4008676,77.8379932 L45.4008676,77.8379932 C45.4008676,68.2646019 28.7517832,64.9334429 28.7517832,64.9334429 L28.7517832,64.9334429 C28.7517832,64.9334429 41.2389321,26.2211342 28.7517832,8.73724687 L28.7517832,8.73724687 C23.9832063,2.06284972 19.2092609,-0.00134147294 15.1305372,0 L15.1305372,0 C13.8675958,0 12.6717607,0.19729331 11.5631639,0.516719516" id="path-14"></path>
        <path d="M11.5631639,0.516719516 C6.67647976,1.92595278 3.00442053,6.01541348 1.79919056,10.9557827 L1.79919056,10.9557827 C-2.14666257,27.1404911 0.403378567,59.6763318 9.39428677,73.2318136 L9.39428677,73.2318136 C19.5931092,88.6058774 45.4008676,87.4113845 45.4008676,77.8379932 L45.4008676,77.8379932 C45.4008676,68.2646019 28.7517832,64.9334429 28.7517832,64.9334429 L28.7517832,64.9334429 C28.7517832,64.9334429 41.2389321,26.2211342 28.7517832,8.73724687 L28.7517832,8.73724687 C23.9832063,2.06284972 19.2092609,-0.00134147294 15.1305372,0 L15.1305372,0 C13.8675958,0 12.6717607,0.19729331 11.5631639,0.516719516" id="path-16"></path>
        <path d="M0,0 L7.96954962,83.9070904 C8.33729239,87.223486 9.81497412,90.3573524 12.2871719,92.5973622 L12.2871719,92.5973622 C22.852395,102.162701 42.4608692,103.679304 40.2732023,92.7423119 L40.2732023,92.7423119 C37.7755041,80.2551631 22.789315,79.3170164 22.789315,79.3170164 L22.789315,79.3170164 L12.4871488,0" id="path-18"></path>
        <path d="M0,0 L7.96954962,83.9070904 C8.33729239,87.223486 9.81497412,90.3573524 12.2871719,92.5973622 L12.2871719,92.5973622 C22.852395,102.162701 42.4608692,103.679304 40.2732023,92.7423119 L40.2732023,92.7423119 C37.7755041,80.2551631 22.789315,79.3170164 22.789315,79.3170164 L22.789315,79.3170164 L12.4871488,0" id="path-20"></path>
        <path d="M0.629717375,19.6205534 C-1.34455132,42.3789994 -0.060135859,77.3816694 25.2912994,83.1984474 L25.2912994,83.1984474 C63.378177,91.9410621 87.4183543,81.3261804 90.5401415,72.2721922 L90.5401415,72.2721922 C90.5401415,72.2721922 56.8084658,64.7790976 50.8843176,50.7310552 L50.8843176,50.7310552 C47.7437406,43.283593 45.1265931,29.5187394 43.3616962,18.2287677 L43.3616962,18.2287677 C41.7323541,7.80581013 32.8125787,0.0885803763 22.2607769,0 L22.2607769,0 C22.2003811,0 22.1399854,0 22.0795897,0 L22.0795897,0 C10.9372521,-0.00134212691 1.59604875,8.49968975 0.629717375,19.6205534" id="path-22"></path>
        <path d="M0.629717375,19.6205534 C-1.34455132,42.3789994 -0.060135859,77.3816694 25.2912994,83.1984474 L25.2912994,83.1984474 C63.378177,91.9410621 87.4183543,81.3261804 90.5401415,72.2721922 L90.5401415,72.2721922 C90.5401415,72.2721922 56.8084658,64.7790976 50.8843176,50.7310552 L50.8843176,50.7310552 C47.7437406,43.283593 45.1265931,29.5187394 43.3616962,18.2287677 L43.3616962,18.2287677 C41.7323541,7.80581013 32.8125787,0.0885803763 22.2607769,0 L22.2607769,0 C22.2003811,0 22.1399854,0 22.0795897,0 L22.0795897,0 C10.9372521,-0.00134212691 1.59604875,8.49968975 0.629717375,19.6205534" id="path-24"></path>
    </defs>
    <g id="Page-1" stroke="none" stroke-width="1" fill="none" fill-rule="evenodd">
        <g id="Extra-Large" transform="translate(-27, -31)">
            <g id="dog" transform="translate(27, 31)">
                <rect id="Rectangle" fill="url(#linearGradient-1)" x="0" y="0" width="256" height="256"></rect>
                <g id="fox" transform="translate(52, 16)">
                    <g id="Group-8">
                        <path d="M60.9351729,182.425245 C60.9351729,182.425245 45.3597901,146.989069 36.3782768,102.485482 L33.3048061,119.602969 C33.3048061,119.602969 15.008932,71.1052129 12.8172388,47.1415368 C12.8172388,47.1415368 6.79108893,66.5406392 8.4351944,93.356335 L0.21600918,81.9455719 C0.21600918,81.9455719 -3.26815229,107.319823 17.7495552,137.861263 C17.7495552,137.861263 6.24350115,130.443328 4.0518079,128.161712 C4.0518079,128.161712 20.2902014,175.069048 60.9351729,182.425245" id="Fill-1" fill="#EDA72B"></path>
                        <g id="Group-5" transform="translate(89.0351, 0)">
                            <mask id="mask-3" fill="white">
                                <use xlink:href="#path-2"></use>
                            </mask>
                            <g id="Clip-4"></g>
                            <path d="M12.7985223,49.0140723 C18.940095,30.8336211 12.7985223,-0.000402638074 12.7985223,-0.000402638074 C4.05590753,10.9258526 0,25.5993261 0,25.5993261 L12.7985223,49.0140723 Z" id="Fill-3" fill="#EDA72B" mask="url(#mask-3)"></path>
                        </g>
                        <path d="M75.4169907,49.0140723 C65.5926217,49.0140723 57.1895651,56.0736598 55.5025116,65.7530791 C50.1340039,96.5589182 39.2413019,160.122049 38.7715575,171.394573 C38.1474685,186.37942 43.5522135,210.077355 83.1033516,207.296468 C123.06518,204.487396 121.81566,169.833679 115.25937,147.355738 C110.584742,131.325374 100.510738,88.1437825 95.1153875,64.6901146 C93.0042218,55.5113087 84.8360374,49.0140723 75.4169907,49.0140723 Z" id="Fill-6" fill="#FDC664"></path>
                    </g>
                    <g id="Group-11" transform="translate(38.7263, 49.0145)">
                        <mask id="mask-5" fill="white">
                            <use xlink:href="#path-4"></use>
                        </mask>
                        <g id="Clip-10"></g>
                        <path d="M68.7214558,53.3848428 C68.7214558,53.3848428 30.3795741,54.772602 23.4609099,23.7265222 C23.4609099,23.7265222 17.8373981,64.311098 68.7214558,59.6284172 L68.7214558,53.3848428 Z" id="Fill-9" fill="#EDA72B" mask="url(#mask-5)"></path>
                    </g>
                    <path d="M51.368358,135.524352 C50.1631281,130.583983 46.4910688,126.494522 41.6057269,125.085289 C36.9136512,123.732425 30.6606819,124.564544 24.4171075,133.307158 C11.9299587,150.789704 24.4171075,189.502012 24.4171075,189.502012 C24.4171075,189.502012 7.76668099,192.831829 7.76668099,202.40522 C7.76668099,211.979954 33.5757815,213.174447 43.7732618,197.800383 C52.76417,184.244901 55.3155533,151.709061 51.368358,135.524352" id="Fill-12" fill="#FDC664"></path>
                    <g id="Group-20" transform="translate(7.7668, 124.5682)">
                        <g id="Group-16">
                            <mask id="mask-7" fill="white">
                                <use xlink:href="#path-6"></use>
                            </mask>
                            <g id="Clip-15"></g>
                            <path d="M0.618317869,84.9344892 C0.618317869,84.9344892 -0.421830489,75.9637129 8.94353112,70.761629" id="Stroke-14" stroke="#633B0A" stroke-width="2" stroke-linecap="round" stroke-linejoin="round" mask="url(#mask-7)"></path>
                        </g>
                        <g id="Group-19">
                            <mask id="mask-9" fill="white">
                                <use xlink:href="#path-8"></use>
                            </mask>
                            <g id="Clip-18"></g>
                            <path d="M11.8574229,87.203489 C11.8574229,87.203489 10.6092448,78.6702461 18.5170566,71.5932109" id="Stroke-17" stroke="#633B0A" stroke-width="2" stroke-linecap="round" stroke-linejoin="round" mask="url(#mask-9)"></path>
                        </g>
                    </g>
                    <g id="Group-25" transform="translate(35.3519, 123.6287)">
                        <path d="M41.5077882,83.8880322 C41.5077882,83.8880322 20.2203132,83.8920586 18.093042,56.1945855 C15.5081056,22.5246476 31.5183375,9.67780875 45.2550065,9.67780875 C58.9916755,9.67780875 69.1556026,17.0675595 71.7915399,44.9556147 C74.426135,72.8436698 59.6157645,84.2249061 41.5077882,83.8880322" id="Fill-21" fill="#FFFEFF"></path>
                        <path d="M27.9535142,0 L17.651348,79.3170164 C17.651348,79.3170164 2.66515892,80.253821 0.168802864,92.7423119 C-2.01886401,103.680646 17.5896102,102.162701 28.1534912,92.5973622 C30.6270311,90.3573524 32.1047128,87.223486 32.4711134,83.9070904 L40.4420052,0 L27.9535142,0 Z" id="Fill-23" fill="#FDC664"></path>
                    </g>
                    <g id="Group-32" transform="translate(35.3505, 123.6287)">
                        <g id="Group-28">
                            <mask id="mask-11" fill="white">
                                <use xlink:href="#path-10"></use>
                            </mask>
                            <g id="Clip-27"></g>
                            <path d="M0.924151511,100.392972 C0.924151511,100.392972 -0.115996847,90.8491077 6.33560723,86.8938597" id="Stroke-26" stroke="#633B0A" stroke-width="2" stroke-linecap="round" stroke-linejoin="round" mask="url(#mask-11)"></path>
                        </g>
                        <g id="Group-31">
                            <mask id="mask-13" fill="white">
                                <use xlink:href="#path-12"></use>
                            </mask>
                            <g id="Clip-30"></g>
                            <path d="M12.7874797,102.087542 C12.7874797,102.087542 9.24963319,94.1783877 16.3253263,86.8946649" id="Stroke-29" stroke="#633B0A" stroke-width="2" stroke-linecap="round" stroke-linejoin="round" mask="url(#mask-13)"></path>
                        </g>
                    </g>
                    <path d="M109.170543,135.524352 C110.375773,130.583983 114.047832,126.494522 118.933174,125.085289 C123.62525,123.732425 129.878219,124.564544 136.121794,133.307158 C148.610285,150.789704 136.121794,189.502012 136.121794,189.502012 C136.121794,189.502012 152.77222,192.831829 152.77222,202.40522 C152.77222,211.979954 126.96312,213.174447 116.765639,197.800383 C107.774731,184.244901 105.223348,151.709061 109.170543,135.524352" id="Fill-33" fill="#FDC664"></path>
                    <g id="Group-41" transform="translate(107.3707, 124.5682)">
                        <g id="Group-37">
                            <mask id="mask-15" fill="white">
                                <use xlink:href="#path-14"></use>
                            </mask>
                            <g id="Clip-36"></g>
                            <path d="M44.7830866,84.9344892 C44.7830866,84.9344892 45.823235,75.9637129 36.4578734,70.761629" id="Stroke-35" stroke="#633B0A" stroke-width="2" stroke-linecap="round" stroke-linejoin="round" mask="url(#mask-15)"></path>
                        </g>
                        <g id="Group-40">
                            <mask id="mask-17" fill="white">
                                <use xlink:href="#path-16"></use>
                            </mask>
                            <g id="Clip-39"></g>
                            <path d="M33.5441158,87.203489 C33.5441158,87.203489 34.7922939,78.6702461 26.8844821,71.5932109" id="Stroke-38" stroke="#633B0A" stroke-width="2" stroke-linecap="round" stroke-linejoin="round" mask="url(#mask-17)"></path>
                        </g>
                    </g>
                    <path d="M97.2335322,123.628679 L107.535698,202.945695 C107.535698,202.945695 122.521887,203.8825 125.018244,216.37099 C127.20591,227.309325 107.597436,225.791379 97.0335552,216.226041 C94.5600153,213.986031 93.0823336,210.852165 92.715933,207.535769 L84.7450412,123.628679 L97.2335322,123.628679 Z" id="Fill-42" fill="#FDC664"></path>
                    <g id="Group-50" transform="translate(84.7458, 123.6287)">
                        <g id="Group-46">
                            <mask id="mask-19" fill="white">
                                <use xlink:href="#path-18"></use>
                            </mask>
                            <g id="Clip-45"></g>
                            <path d="M39.5185244,100.392972 C39.5185244,100.392972 40.5586727,90.8491077 34.1070686,86.8938597" id="Stroke-44" stroke="#633B0A" stroke-width="2" stroke-linecap="round" stroke-linejoin="round" mask="url(#mask-19)"></path>
                        </g>
                        <g id="Group-49">
                            <mask id="mask-21" fill="white">
                                <use xlink:href="#path-20"></use>
                            </mask>
                            <g id="Clip-48"></g>
                            <path d="M27.6550619,102.087542 C27.6550619,102.087542 31.1929085,94.1783877 24.1172154,86.8946649" id="Stroke-47" stroke="#633B0A" stroke-width="2" stroke-linecap="round" stroke-linejoin="round" mask="url(#mask-21)"></path>
                        </g>
                    </g>
                    <path d="M78.825322,17.3262244 C67.6037989,17.2330438 58.1646203,25.7662867 57.1942626,36.9462039 C55.2186517,59.70465 56.5030672,94.7073199 81.8545025,100.526782 C119.942722,109.268055 143.981557,98.653173 147.103345,89.5991849 C147.103345,89.5991849 113.371669,82.1060903 107.447521,68.0580479 C104.306944,60.6105857 101.691138,46.8470742 99.9248993,35.5557604 C98.2955572,25.1314607 89.3757817,17.4155731 78.825322,17.3262244" id="Fill-51" fill="#FDC664"></path>
                    <g id="Group-59" transform="translate(56.5636, 17.3269)">
                        <g id="Group-55">
                            <mask id="mask-23" fill="white">
                                <use xlink:href="#path-22"></use>
                            </mask>
                            <g id="Clip-54"></g>
                            <path d="M99.3493257,71.1335317 C99.3493257,71.1335317 88.1922247,68.6492548 75.7131286,63.8430983 C66.0793416,71.6220659 61.8731159,83.5992065 60.1900887,90.3662104 C82.8371383,87.6416928 96.6435978,78.9796057 99.3493257,71.1335317" id="Fill-53" fill="#633B0A" mask="url(#mask-23)"></path>
                        </g>
                        <g id="Group-58">
                            <mask id="mask-25" fill="white">
                                <use xlink:href="#path-24"></use>
                            </mask>
                            <g id="Clip-57"></g>
                            <path d="M19.2297174,63.5310538 C19.2297174,63.5310538 16.0220341,75.1860839 23.0494106,76.2275744 C30.0781293,77.2677228 32.834858,66.028752 32.834858,66.028752" id="Stroke-56" stroke="#633B0A" stroke-linecap="round" stroke-linejoin="round" mask="url(#mask-25)"></path>
                        </g>
                    </g>
                    <g id="Group-76" transform="translate(47.514, 1.8724)">
                        <path d="M56.7628735,48.5985498 C56.7628735,52.7068003 53.4317145,56.0379593 49.323464,56.0379593 C45.2152135,56.0379593 41.8840545,52.7068003 41.8840545,48.5985498 C41.8840545,44.4902993 45.2152135,41.1591403 49.323464,41.1591403 C53.4317145,41.1591403 56.7628735,44.4902993 56.7628735,48.5985498" id="Fill-60" fill="#FFFFFF"></path>
                        <path d="M49.3237324,48.5985498 L54.5781593,48.5985498 C54.5781593,51.4814384 52.206621,53.8529766 49.3237324,53.8529766 C46.4421859,53.8529766 44.0693055,51.4814384 44.0693055,48.5985498 C44.0693055,45.7156612 46.4421859,43.3441229 49.3237324,43.3441229 C50.7947035,43.3441229 52.1985683,43.9615013 53.1930843,45.0445977 L49.3237324,48.5985498 Z" id="Fill-62" fill="#633B0A"></path>
                        <path d="M34.2849319,48.5985498 C34.2849319,52.7068003 30.9537729,56.0379593 26.8455224,56.0379593 C22.7372719,56.0379593 19.4061129,52.7068003 19.4061129,48.5985498 C19.4061129,44.4902993 22.7372719,41.1591403 26.8455224,41.1591403 C30.9537729,41.1591403 34.2849319,44.4902993 34.2849319,48.5985498" id="Fill-64" fill="#FFFFFF"></path>
                        <path d="M26.8456566,48.5985498 L32.1000835,48.5985498 C32.1000835,51.4814384 29.7272031,53.8529766 26.8456566,53.8529766 C23.962768,53.8529766 21.5912298,51.4814384 21.5912298,48.5985498 C21.5912298,45.7156612 23.962768,43.3441229 26.8456566,43.3441229 C28.3166277,43.3441229 29.7204925,43.9615013 30.7150085,45.0445977 L26.8456566,48.5985498 Z" id="Fill-66" fill="#633B0A"></path>
                        <path d="M9.04959061,60.0574952 C9.04959061,60.0574952 -2.8094428,24.0388352 0.623717845,0 C0.623717845,0 19.406784,14.360758 19.406784,30.9078407 C8.11681241,50.0559654 9.04959061,60.0574952 9.04959061,60.0574952" id="Fill-68" fill="#FDC664"></path>
                        <path d="M18.1069341,38.40013 C18.1069341,38.40013 20.9683487,32.467929 28.278914,34.0288226" id="Stroke-70" stroke="#633B0A" stroke-width="2" stroke-linecap="round" stroke-linejoin="round"></path>
                        <path d="M58.3389331,38.40013 C58.3389331,38.40013 55.4775185,32.467929 48.1669532,34.0288226" id="Stroke-72" stroke="#633B0A" stroke-width="2" stroke-linecap="round" stroke-linejoin="round"></path>
                        <path d="M9.70320642,19.6684673 C7.36119495,11.0855657 2.76977878,6.92765649 0.127130886,5.16544385 C-0.938517883,23.9968266 5.31579354,47.5431012 7.93562527,56.4320077 C9.19185607,49.7777425 12.5122781,29.9612386 9.70320642,19.6684673" id="Fill-74" fill="#FFFFFF"></path>
                    </g>
                </g>
            </g>
        </g>
    </g>
</svg>