<?xml version="1.0" encoding="UTF-8"?>
<svg width="256px" height="256px" viewBox="0 0 256 256" version="1.1" xmlns="http://www.w3.org/2000/svg" xmlns:xlink="http://www.w3.org/1999/xlink">
    <title>fish</title>
    <defs>
        <linearGradient x1="50%" y1="0%" x2="50%" y2="100%" id="linearGradient-1">
            <stop stop-color="#6DD400" offset="0%"></stop>
            <stop stop-color="#F7B500" offset="100%"></stop>
        </linearGradient>
        <path d="M111.998284,14.4814423 C87.3072622,14.4814423 64.4828209,-7.71337102 45.9679855,5.82105602 L45.9679855,5.82105602 C18.0996584,26.1956099 0,59.1301258 0,96.2953296 L0,96.2953296 C0,158.14984 50.1420584,208.29533 111.998284,208.29533 L111.998284,208.29533 C173.85451,208.29533 223.998284,158.14984 223.998284,96.2953296 L223.998284,96.2953296 C223.998284,57.7027404 204.479819,23.6702357 174.775792,3.52900449 L174.775792,3.52900449 C171.047777,1.00191474 167.16021,0 163.131964,0 L163.131964,0 C147.803012,0 130.420477,14.4814423 111.998284,14.4814423 L111.998284,14.4814423 Z" id="path-2"></path>
    </defs>
    <g id="Page-1" stroke="none" stroke-width="1" fill="none" fill-rule="evenodd">
        <g id="Extra-Large" transform="translate(-1537, -31)">
            <g id="fish" transform="translate(1537, 31)">
                <rect id="Rectangle" fill="url(#linearGradient-1)" x="0" y="0" width="256" height="256"></rect>
                <g transform="translate(16, 21)">
                    <g id="Group-5">
                        <path d="M224,101.137612 C224,62.5450233 204.481534,28.5125187 174.777507,8.3712874 C156.869997,-3.77006639 135.263637,19.3254409 112,19.3254409 C87.3089778,19.3254409 64.4828209,-2.87280371 45.9679855,10.6633389 C18.101374,31.0361772 0,63.9741243 0,101.137612 C0,162.993838 50.143774,213.137612 112,213.137612 C173.856226,213.137612 224,162.993838 224,101.137612" id="Fill-1" fill="#A7EFE7"></path>
                        <path d="M196.892888,4.99737383 C196.892888,-6.24671728 158.885321,4.99737383 111.999485,4.99737383 C65.1153654,4.99737383 27.1077984,-6.24671728 27.1077984,4.99737383 C27.1077984,16.2414649 65.1153654,25.3564872 111.999485,25.3564872 C158.885321,25.3564872 196.892888,16.2414649 196.892888,4.99737383" id="Fill-3" fill="#D8FFF9"></path>
                    </g>
                    <g id="Group-8" transform="translate(0.0012, 4.8425)">
                        <mask id="mask-3" fill="white">
                            <use xlink:href="#path-2"></use>
                        </mask>
                        <g id="Clip-7"></g>
                        <path d="M-40.8434661,171.289334 C-25.7272491,138.155808 4.90492165,112.049409 35.8596265,118.709398 C57.0834061,123.274629 74.0473324,141.640206 92.3116891,155.406241 C135.563868,188.006213 163.658655,149.830516 207.389489,143.944267 C229.019867,141.032881 251.125469,151.26648 270.187583,161.995889 L270.187583,218.082527 L-32.8075609,218.082527 L-40.8434661,171.289334 Z" id="Fill-6" fill="#FDF1BD" mask="url(#mask-3)"></path>
                    </g>
                    <g id="Group-56" transform="translate(11.6863, 35.4281)">
                        <path d="M198.130279,101.644765 C193.927041,108.925803 183.237091,108.08344 179.092184,116.345805 C177.093501,120.331161 177.256484,125.01477 177.518972,129.465055 C177.561862,130.209629 177.601321,130.985083 177.311383,131.673042 C176.813857,132.855096 175.460243,133.458989 174.182115,133.570504 C171.001379,133.848432 167.999066,131.715932 166.307477,129.006988 C164.615888,126.298044 163.979398,123.082996 163.372073,119.946865 C161.213839,108.803995 162.649802,99.5259899 150.077831,96.0072791 C146.315504,94.9538961 143.040409,93.8147328 139.954031,91.3082303 C138.782271,90.3560682 137.576199,89.3610159 136.901966,88.0091172 C135.579232,85.3516413 136.697808,82.088556 138.449444,79.6918524 C142.26667,74.4729746 145.522893,78.1323652 148.712207,81.3782945 C152.733591,85.4700182 161.831457,88.9372608 162.975767,80.3334896 C164.391144,69.6881455 153.306604,67.9227854 148.214681,61.2010355 C146.147374,58.4732197 145.099138,54.7229018 146.409862,51.5610373 C149.487662,47.7901322 155.813106,48.4660815 159.493084,51.6519645 C163.173062,54.8361319 164.878376,59.6758605 166.449873,64.2822664 C168.019653,68.8886724 169.760995,73.7249697 173.482147,76.8611001 C176.486176,75.445724 177.59789,71.8498108 178.891458,68.7891672 C180.185026,65.7302391 182.79618,62.4482821 186.067844,63.0247262 C188.564052,63.4656373 190.161283,66.1539941 190.197311,68.6879463 C190.233338,71.2218985 189.082166,73.6083084 187.877809,75.8385981 C183.382918,84.1575785 177.623624,92.214071 176.482745,101.601875 C180.478394,102.578056 184.118913,99.3304107 187.196713,96.6025949 C190.274513,93.874779 194.831166,91.3511205 198.229785,93.6654749 C199.971126,95.8889022 199.542224,99.1983089 198.130279,101.644765" id="Fill-9" fill="#8AC43D"></path>
                        <path d="M6.52266329,82.1062267 C4.21174008,80.6308043 1.33809763,79.500219 0.315595603,76.9576888 C-0.948807074,73.8095492 1.77557753,70.0678094 5.1158652,69.479356 C8.45786848,68.8909027 11.8444775,70.7763553 14.0009961,73.3943722 C16.1575146,76.0141047 17.3327057,79.2806213 18.511328,82.4613575 C18.9539547,83.6554202 19.6316197,85.0347686 20.8960224,85.1805953 C21.3952641,85.2372103 21.8945059,85.0759432 22.3405638,84.8443362 C25.2433716,83.3363173 25.7494758,79.2291531 24.5983032,76.1650782 C23.4488462,73.1010033 21.129345,70.6373911 19.5080959,67.7963451 C16.977575,63.3597843 16.2209921,57.9436117 17.4390734,52.9855062 C18.1853626,49.948881 20.4859922,46.6120246 23.580948,47.0632293 C25.6894295,47.3703231 27.1322554,49.3552809 27.9849123,51.3076421 C30.8757108,57.9298868 29.8892365,65.8439839 33.2552583,72.2363372 C33.7270503,73.1301687 34.5522575,74.1063493 35.5353006,73.8764579 C36.0825794,73.7477873 36.4703066,73.2759953 36.8048501,72.8265061 C38.544476,70.4778396 39.9993111,67.9164377 41.1264652,65.2195028 C45.2868132,66.5885575 46.6129778,72.1677129 45.139271,76.2903175 C43.6638486,80.4146378 40.3098361,83.5198873 37.4499185,86.837872 C34.9193975,89.7732764 30.5085708,98.6206639 38.5496228,98.2415146 C40.8622617,98.1334314 42.3239592,95.8310862 44.0584383,94.3007644 C45.8032111,92.7601489 48.1278591,91.8937671 50.4559384,91.9143544 C51.0220889,91.9195012 51.6088266,91.9812631 52.0943435,92.274632 C53.0653773,92.8596541 53.3210028,94.1583689 53.2746814,95.2923855 C53.0653773,100.440923 48.7626339,104.55495 44.1356406,106.821267 C42.1506828,107.792301 39.9718614,108.596921 38.544476,110.286794 C36.8700432,112.266605 36.5852523,115.021871 36.0654233,117.56097 C35.078949,122.371533 32.9841923,126.952205 29.992173,130.844918 C28.1032892,133.303384 25.4406664,135.657197 22.3491419,135.432453 C11.3469514,134.632979 14.9634519,118.08423 16.0305597,111.480857 C17.6621024,101.377645 15.9018891,88.0936967 6.52266329,82.1062267" id="Fill-11" fill="#F5909A"></path>
                        <path d="M156.421118,29.4514897 C156.421118,29.4514897 163.494567,42.1058101 154.08446,47.6232036 C144.674354,53.1388815 146.621568,64.8204525 146.621568,64.8204525 C146.621568,64.8204525 159.600138,68.0989783 164.791566,51.3700902 C169.982994,34.6429178 156.421118,29.4514897 156.421118,29.4514897" id="Fill-13" fill="#FDC664"></path>
                        <path d="M181.314067,83.4250142 C181.314067,83.4250142 176.280475,69.8305409 165.974821,73.4058668 C155.670883,76.9829083 148.050154,67.9176386 148.050154,67.9176386 C148.050154,67.9176386 153.982725,55.9169646 170.075123,62.8274313 C186.169236,69.7378981 181.314067,83.4250142 181.314067,83.4250142" id="Fill-15" fill="#FDC664"></path>
                        <path d="M82.2337918,51.7547294 C88.0342605,37.6181242 105.729036,32.8041297 117.806912,42.1627683 C123.404939,46.4998238 127.599599,51.4047455 131.017089,57.5328952 C134.081164,63.0297015 141.137457,63.2990518 147.021991,62.2525313 C149.919652,61.7378491 153.414344,60.9006326 155.399302,63.0725916 C157.34137,65.1982292 156.236518,68.6929216 154.400818,70.9094864 C151.07254,74.9291546 146.006351,76.9981772 141.794535,80.0759769 C133.750052,85.953648 129.07159,95.0463674 122.511107,102.330837 C115.869991,109.706233 105.667274,114.96457 95.6772916,115.439793 C68.4197207,116.736792 35.9724374,108.30115 37.2694366,95.3208645 C38.5681514,82.3422943 71.0171504,79.0980807 81.4000066,53.7877242 L82.2337918,51.7547294 Z" id="Fill-17" fill="#FA4554"></path>
                        <path d="M107.479127,101.430314 C113.181806,107.280536 126.724811,118.588104 143.916913,115.570351 C143.916913,115.570351 127.225768,103.453015 124.485943,94.3482867 C123.691617,91.7062512 121.691219,89.6114946 119.008009,88.9767198 C114.897413,88.0022548 109.392029,87.774079 106.456625,92.2003462 C104.538576,95.0928603 105.056689,98.944399 107.479127,101.430314" id="Fill-19" fill="#FDC664"></path>
                        <path d="M84.7704889,48.2885162 C87.5737915,38.0137432 95.7949823,17.8828056 117.092533,18.527874 C117.092533,18.527874 104.760747,23.9714964 107.644683,36.7990932 C107.860849,37.7615489 107.409645,38.7548857 106.579291,39.2901552 L88.4161547,50.9751574 C86.5409958,52.182945 84.1837512,50.4398879 84.7704889,48.2885162" id="Fill-21" fill="#FDC664"></path>
                        <path d="M68.791836,102.242826 L68.743799,102.242826 C50.6287001,102.227385 46.8440701,92.2202472 46.691381,91.7947766 C46.3088006,90.7259532 46.866373,89.5490465 47.9334808,89.1681816 C48.9971574,88.7838855 50.1637705,89.3345955 50.5532134,90.3879785 C50.6938932,90.7448248 53.7665461,98.1202212 68.7472302,98.1322304 L68.791836,98.1322304 C77.287524,98.1322304 83.8068322,95.4061302 83.8720253,95.3769649 C84.913399,94.9377694 86.1211866,95.4198551 86.5672446,96.4629444 C87.0115869,97.5043181 86.5295012,98.7103901 85.4864119,99.1564481 C85.193043,99.283403 78.1676306,102.242826 68.791836,102.242826 Z" id="Stroke-23" stroke="#FDC664"></path>
                        <path d="M99.2462697,80.1075441 C99.2462697,85.5769006 94.8114245,90.0117458 89.342068,90.0117458 C83.8727115,90.0117458 79.4378663,85.5769006 79.4378663,80.1075441 C79.4378663,74.6381876 83.8727115,70.2033424 89.342068,70.2033424 C94.8114245,70.2033424 99.2462697,74.6381876 99.2462697,80.1075441" id="Fill-25" fill="#FFFFFF"></path>
                        <path d="M89.3424112,80.1075441 L96.3369427,80.1075441 C96.3369427,83.9453579 93.180225,87.1020756 89.3424112,87.1020756 C85.5045973,87.1020756 82.3478797,83.9453579 82.3478797,80.1075441 C82.3478797,76.2697303 85.5045973,73.1130126 89.3424112,73.1130126 C91.2999192,73.1130126 93.1699313,73.9347885 94.4943803,75.3758988 L89.3424112,80.1075441 Z" id="Fill-27" fill="#633B0A"></path>
                        <path d="M72.9631639,76.4536434 C72.9631639,81.9229999 68.5283187,86.3578451 63.0589622,86.3578451 C57.5896057,86.3578451 53.1547605,81.9229999 53.1547605,76.4536434 C53.1547605,70.9842869 57.5896057,66.5494417 63.0589622,66.5494417 C68.5283187,66.5494417 72.9631639,70.9842869 72.9631639,76.4536434" id="Fill-29" fill="#FFFFFF"></path>
                        <path d="M63.0593053,76.4536434 L70.0538368,76.4536434 C70.0538368,80.2914572 66.8971191,83.4481749 63.0593053,83.4481749 C59.2214915,83.4481749 56.0647738,80.2914572 56.0647738,76.4536434 C56.0647738,72.6158295 59.2214915,69.4591119 63.0593053,69.4591119 C65.0168134,69.4591119 66.8868255,70.2808878 68.2112744,71.7219981 L63.0593053,76.4536434 Z" id="Fill-31" fill="#633B0A"></path>
                        <path d="M86.7326291,63.5222523 C86.7326291,63.5222523 96.710602,60.6022885 100.88639,68.0651808" id="Stroke-33" stroke="#633B0A" stroke-linecap="round" stroke-linejoin="round"></path>
                        <path d="M73.3568958,63.8615995 C73.3568958,63.8615995 65.0928148,57.5550266 58.5168915,63.0226675" id="Stroke-35" stroke="#633B0A" stroke-linecap="round" stroke-linejoin="round"></path>
                        <g id="Group-55" transform="translate(21.9489, 0)" fill="#FFFFFF">
                            <path d="M42.0095645,21.5785672 C42.0095645,28.9591103 36.0272414,34.9414335 28.6466982,34.9414335 C21.266155,34.9414335 15.2838319,28.9591103 15.2838319,21.5785672 C15.2838319,14.198024 21.266155,8.21570087 28.6466982,8.21570087 C36.0272414,8.21570087 42.0095645,14.198024 42.0095645,21.5785672" id="Fill-37"></path>
                            <path d="M121.778962,34.4174869 C121.778962,38.1643736 118.742337,41.2009987 114.995451,41.2009987 C111.248564,41.2009987 108.210223,38.1643736 108.210223,34.4174869 C108.210223,30.6706003 111.248564,27.6339752 114.995451,27.6339752 C118.742337,27.6339752 121.778962,30.6706003 121.778962,34.4174869" id="Fill-39"></path>
                            <path d="M143.320644,103.866991 C143.320644,108.408204 139.63895,112.089898 135.097738,112.089898 C130.556525,112.089898 126.874831,108.408204 126.874831,103.866991 C126.874831,99.3257785 130.556525,95.644085 135.097738,95.644085 C139.63895,95.644085 143.320644,99.3257785 143.320644,103.866991" id="Fill-41"></path>
                            <path d="M104.361429,133.353136 C104.361429,137.60098 100.918205,141.042489 96.672077,141.042489 C92.424233,141.042489 88.9810088,137.60098 88.9810088,133.353136 C88.9810088,129.105292 92.424233,125.663784 96.672077,125.663784 C100.918205,125.663784 104.361429,129.105292 104.361429,133.353136" id="Fill-43"></path>
                            <path d="M159.482524,56.0814914 C159.482524,58.6823522 157.374042,60.7925494 154.771466,60.7925494 C152.170605,60.7925494 150.062123,58.6823522 150.062123,56.0814914 C150.062123,53.4806305 152.170605,51.3704333 154.771466,51.3704333 C157.374042,51.3704333 159.482524,53.4806305 159.482524,56.0814914" id="Fill-45"></path>
                            <path d="M151.686117,13.3638957 C151.686117,16.2066572 149.380341,18.5124336 146.537579,18.5124336 C143.694818,18.5124336 141.389042,16.2066572 141.389042,13.3638957 C141.389042,10.5211341 143.694818,8.21535775 146.537579,8.21535775 C149.380341,8.21535775 151.686117,10.5211341 151.686117,13.3638957" id="Fill-47"></path>
                            <path d="M16.8901552,43.386511 C16.8901552,48.0512476 13.1089564,51.8324464 8.44593539,51.8324464 C3.78119878,51.8324464 0,48.0512476 0,43.386511 C0,38.7217744 3.78119878,34.9422913 8.44593539,34.9422913 C13.1089564,34.9422913 16.8901552,38.7217744 16.8901552,43.386511" id="Fill-49"></path>
                            <path d="M22.0889604,120.882901 C22.0889604,124.650375 19.0351791,127.704156 15.2677052,127.704156 C11.4985157,127.704156 8.44473446,124.650375 8.44473446,120.882901 C8.44473446,117.115427 11.4985157,114.061645 15.2677052,114.061645 C19.0351791,114.061645 22.0889604,117.115427 22.0889604,120.882901" id="Fill-51"></path>
                            <path d="M78.9369851,6.68229095 C78.9369851,10.3725625 75.9449658,13.3645819 72.2546942,13.3645819 C68.5661382,13.3645819 65.5741188,10.3725625 65.5741188,6.68229095 C65.5741188,2.99201936 68.5661382,0 72.2546942,0 C75.9449658,0 78.9369851,2.99201936 78.9369851,6.68229095" id="Fill-53"></path>
                        </g>
                    </g>
                </g>
            </g>
        </g>
    </g>
</svg>