<?xml version="1.0" encoding="UTF-8"?>
<svg width="256px" height="256px" viewBox="0 0 256 256" version="1.1" xmlns="http://www.w3.org/2000/svg" xmlns:xlink="http://www.w3.org/1999/xlink">
    <title>rabbit</title>
    <defs>
        <linearGradient x1="50%" y1="0.912368881%" x2="50%" y2="100%" id="linearGradient-1">
            <stop stop-color="#6FB7FF" offset="0%"></stop>
            <stop stop-color="#5992CC" offset="100%"></stop>
        </linearGradient>
        <polygon id="path-2" points="0 0 66.4889912 0 66.4889912 19.4612852 0 19.4612852"></polygon>
        <path d="M10.6100862,0.874784565 C5.40771572,2.59486658 1.74007963,6.54754483 0.824574753,11.0029083 L0.824574753,11.0029083 C-2.17749491,25.5990328 3.19477755,53.9038598 14.057271,64.9123847 L14.057271,64.9123847 C26.3758665,77.3966697 54.3521228,73.7950286 53.5882659,65.3911994 L53.5882659,65.3911994 C52.823005,56.9887743 34.4469125,55.7124032 34.4469125,55.7124032 L34.4469125,55.7124032 C34.4469125,55.7124032 44.9387107,20.4991651 29.9606578,6.38887604 L29.9606578,6.38887604 C24.859386,1.5838796 20.048773,0 15.919172,0 L15.919172,0 C13.9856594,0 12.2023907,0.348228848 10.6100862,0.874784565 L10.6100862,0.874784565 Z" id="path-4"></path>
        <path d="M10.6100862,0.874784565 C5.40771572,2.59486658 1.74007963,6.54754483 0.824574753,11.0029083 L0.824574753,11.0029083 C-2.17749491,25.5990328 3.19477755,53.9038598 14.057271,64.9123847 L14.057271,64.9123847 C26.3758665,77.3966697 54.3521228,73.7950286 53.5882659,65.3911994 L53.5882659,65.3911994 C52.823005,56.9887743 34.4469125,55.7124032 34.4469125,55.7124032 L34.4469125,55.7124032 C34.4469125,55.7124032 44.9387107,20.4991651 29.9606578,6.38887604 L29.9606578,6.38887604 C24.859386,1.5838796 20.048773,0 15.919172,0 L15.919172,0 C13.9856594,0 12.2023907,0.348228848 10.6100862,0.874784565 L10.6100862,0.874784565 Z" id="path-6"></path>
        <path d="M18.8619258,4.94119885 C18.8619258,4.94119885 1.25811511,32.7124495 0.0238685052,74.6810464 L0.0238685052,74.6810464 C-1.21178224,116.648239 45.8735321,112.594462 61.1506686,107.503019 L61.1506686,107.503019 C78.0636383,101.865363 97.5363708,71.1313587 78.174566,46.5503337 L78.174566,46.5503337 C60.5244184,24.1415265 38.8907012,0 38.8907012,0 L38.8907012,0" id="path-8"></path>
        <path d="M18.8619258,4.94119885 C18.8619258,4.94119885 1.25811511,32.7124495 0.0238685052,74.6810464 L0.0238685052,74.6810464 C-1.21178224,116.648239 45.8735321,112.594462 61.1506686,107.503019 L61.1506686,107.503019 C78.0636383,101.865363 97.5363708,71.1313587 78.174566,46.5503337 L78.174566,46.5503337 C60.5244184,24.1415265 38.8907012,0 38.8907012,0 L38.8907012,0" id="path-10"></path>
        <polygon id="path-12" points="0 0 58.2122089 0 58.2122089 45.7606905 0 45.7606905"></polygon>
        <path d="M2.60570278,1.66672436 C-14.0446911,13.2144423 54.547967,45.7612022 54.547967,45.7612022 L54.547967,45.7612022 L58.2127948,42.3168257 C58.2127948,42.3168257 26.6264725,0.00280829716 8.18298094,0 L8.18298094,0 C6.14134891,0 4.26400225,0.516726677 2.60570278,1.66672436 L2.60570278,1.66672436 Z" id="path-14"></path>
        <path d="M4.050144,0.640291752 C-15.3467645,8.29992225 41.2277859,59.1904792 41.2277859,59.1904792 L41.2277859,59.1904792 L45.7603776,56.5759546 C45.7603776,56.5759546 25.9085249,0.00280829716 7.37797614,0 L7.37797614,0 C6.26167801,0 5.15240064,0.205005693 4.050144,0.640291752 L4.050144,0.640291752 Z" id="path-16"></path>
        <path d="M12.6276688,0.456348288 C7.29050002,1.69761563 3.28165583,5.30206504 1.96596861,9.65632978 L1.96596861,9.65632978 C-2.34476753,23.9196711 0.439659103,52.5951933 10.2588701,64.5430936 L10.2588701,64.5430936 C21.3979808,78.0931274 49.5848594,77.040016 49.5848594,68.6024872 L49.5848594,68.6024872 C49.5848594,60.1635542 31.3997311,57.2288837 31.3997311,57.2288837 L31.3997311,57.2288837 C31.3997311,57.2288837 45.0382263,23.1094773 31.3997311,7.70175496 L31.3997311,7.70175496 C26.1917441,1.81837241 20.9795445,0 16.5241811,0 L16.5241811,0 C15.1453072,0 13.839449,0.174114424 12.6276688,0.456348288 L12.6276688,0.456348288 Z" id="path-18"></path>
        <path d="M12.6276688,0.456348288 C7.29050002,1.69761563 3.28165583,5.30206504 1.96596861,9.65632978 L1.96596861,9.65632978 C-2.34476753,23.9196711 0.439659103,52.5951933 10.2588701,64.5430936 L10.2588701,64.5430936 C21.3979808,78.0931274 49.5848594,77.040016 49.5848594,68.6024872 L49.5848594,68.6024872 C49.5848594,60.1635542 31.3997311,57.2288837 31.3997311,57.2288837 L31.3997311,57.2288837 C31.3997311,57.2288837 45.0382263,23.1094773 31.3997311,7.70175496 L31.3997311,7.70175496 C26.1917441,1.81837241 20.9795445,0 16.5241811,0 L16.5241811,0 C15.1453072,0 13.839449,0.174114424 12.6276688,0.456348288 L12.6276688,0.456348288 Z" id="path-20"></path>
    </defs>
    <g id="Page-1" stroke="none" stroke-width="1" fill="none" fill-rule="evenodd">
        <g id="Extra-Large" transform="translate(-1234, -31)">
            <g id="rabbit" transform="translate(1234, 31)">
                <rect id="Rectangle" fill="url(#linearGradient-1)" x="0" y="0" width="256" height="256"></rect>
                <g transform="translate(50, 16)">
                    <g id="Group-6" transform="translate(89.5498, 111.6756)">
                        <g id="Group-3" transform="translate(0, 0)">
                            <mask id="mask-3" fill="white">
                                <use xlink:href="#path-2"></use>
                            </mask>
                            <g id="Clip-2"></g>
                            <path d="M0.230449317,6.32577181 C-0.845128495,3.50764561 2.03899269,0.770960032 4.84869399,1.86619592 C14.3702255,5.57595647 34.3793428,11.5281423 49.1678356,3.30966066 C69.2513727,-7.85051225 72.1790225,12.4113518 56.3318017,17.0338089 C43.1931834,20.8657304 15.4458033,20.3433871 6.59545483,14.1581126 C3.05419211,11.6840028 1.19088695,8.84341022 0.230449317,6.32577181" id="Fill-1" fill="#B9BAC0" mask="url(#mask-3)"></path>
                        </g>
                        <path d="M4.0813268,37.6301411 C4.99683167,33.1747776 8.66446776,29.2220994 13.8668382,27.5020174 C18.8613947,25.8507386 25.7290854,25.9616664 33.2174098,33.017513 C48.1954627,47.1263979 37.7050687,82.3410401 37.7050687,82.3410401 C37.7050687,82.3410401 56.079757,83.6160071 56.845018,92.0198363 C57.6088748,100.422261 29.6340226,104.025307 17.314023,91.5396175 C6.45293375,80.5310926 1.08066128,52.2262656 4.0813268,37.6301411" id="Fill-4" fill="#8F9096"></path>
                    </g>
                    <g id="Group-13" transform="translate(92.8069, 138.303)">
                        <g id="Group-9">
                            <mask id="mask-5" fill="white">
                                <use xlink:href="#path-4"></use>
                            </mask>
                            <g id="Clip-8"></g>
                            <path d="M52.7805997,71.6459792 C52.8381698,70.4707068 52.5643608,69.1072786 52.0869503,67.910944 C51.6081356,66.6893347 50.8920198,65.5561868 50.0228519,64.5395832 C49.1326217,63.5412336 48.0879351,62.6692573 46.9477665,61.9250586 C46.3847029,61.5431302 45.7668775,61.248259 45.1743268,60.9042426 L43.295576,60.0659659 L45.2473425,60.7427655 C45.8679762,61.0376367 46.5209053,61.2847668 47.1260933,61.6231666 C48.3491067,62.2803082 49.504721,63.0834812 50.5311536,64.055152 C51.536524,65.0450767 52.4113086,66.1922661 53.048792,67.4826787 C53.6834672,68.7885368 54.1229657,70.1421361 54.1833441,71.7189949 C54.1973856,72.1065399 53.8954936,72.4337066 53.5065445,72.4491522 C53.1189995,72.4631937 52.7918329,72.1613017 52.7763872,71.7723526 C52.7763872,71.7526945 52.7763872,71.7330364 52.7763872,71.7133783 L52.7805997,71.6459792 Z" id="Fill-7" fill="#4D5056" mask="url(#mask-5)"></path>
                        </g>
                        <g id="Group-12">
                            <mask id="mask-7" fill="white">
                                <use xlink:href="#path-6"></use>
                            </mask>
                            <g id="Clip-11"></g>
                            <path d="M40.7391831,74.7237325 C40.8430901,73.5526726 40.6549342,72.186436 40.2954722,70.9521894 C39.9332018,69.6940723 39.3729465,68.4893128 38.677893,67.3561649 C37.9435233,66.2496958 37.1038424,65.1951802 36.1251509,64.2684421 C35.6575694,63.7812026 35.1085473,63.3824244 34.6016497,62.9330968 C34.0624566,62.5230855 33.5007972,62.1425612 32.9475626,61.743783 C33.5302843,62.0920118 34.1270474,62.4247951 34.7041525,62.7898737 C35.2503663,63.1956726 35.8415129,63.5537305 36.3582395,64.0044622 C37.4324132,64.8609928 38.3900425,65.8649591 39.2535939,66.9559825 C40.0820416,68.0722807 40.7869242,69.2966982 41.2938218,70.6165979 C41.7936987,71.9519432 42.1377151,73.2999258 42.1377151,74.8487017 C42.1377151,75.2362467 41.8231858,75.5521801 41.4342367,75.5521801 C41.0452875,75.5521801 40.7307582,75.2362467 40.7307582,74.8487017 C40.7307582,74.8276395 40.7321624,74.8079814 40.7335665,74.7883233 L40.7391831,74.7237325 Z" id="Fill-10" fill="#4D5056" mask="url(#mask-7)"></path>
                        </g>
                    </g>
                    <g id="Group-18" transform="translate(21.4196, 93.8432)">
                        <path d="M19.0569147,83.1204006 C19.0569147,83.1204006 11.0729259,76.1038701 7.78581404,78.238176 C4.49870222,80.3724818 10.4565046,85.0286385 10.4565046,85.0286385 C10.4565046,85.0286385 0.46177505,84.5680777 0.0166599498,86.6813214 C-0.427051001,88.7959691 8.13965948,91.545292 8.13965948,91.545292 C8.13965948,91.545292 0.923739932,92.8637876 1.0037764,96.9807512 C1.08381287,101.097715 11.5025953,97.9285515 11.5025953,97.9285515 C11.5025953,97.9285515 7.67909875,101.224088 7.94869528,104.433972 C8.21969595,107.643856 17.2722418,100.089536 17.2722418,100.089536 C17.2722418,100.089536 14.5243231,106.158266 18.9923239,107.400938 C23.4617288,108.645013 25.3545211,98.150407 24.7970741,94.8071292 C24.7970741,94.8071292 25.3517128,101.158093 28.8648925,100.951683 C32.3766681,100.745274 29.4827179,87.5224064 25.8600146,86.7599537 C25.8600146,86.7599537 26.1338235,75.4649825 22.6108147,74.7235921 C19.087806,73.9822016 19.0569147,83.1204006 19.0569147,83.1204006" id="Fill-14" fill="#8F9096"></path>
                        <path d="M38.8759102,4.94119885 C38.8759102,4.94119885 21.2706953,32.7124495 20.0364487,74.6796422 C18.8022021,116.648239 65.8875165,112.594462 81.1660572,107.503019 C98.0790268,101.866767 117.551759,71.1313587 98.1885504,46.5503337 C80.5384027,24.1415265 58.9046856,0 58.9046856,0 L38.8759102,4.94119885 Z" id="Fill-16" fill="#B9BAC0"></path>
                    </g>
                    <g id="Group-25" transform="translate(41.4336, 93.8435)">
                        <g id="Group-21">
                            <mask id="mask-9" fill="white">
                                <use xlink:href="#path-8"></use>
                            </mask>
                            <g id="Clip-20"></g>
                            <path d="M65.0522359,17.1075846 C65.0522359,17.1075846 44.0995308,8.21932413 39.6202968,23.7786945 C37.6713386,30.5523073 53.1001232,41.0441055 50.0657581,63.285819 C46.605936,88.6447423 53.3318077,107.033472 74.6187001,100.177015 C95.9055926,93.3205571 88.4860715,44.1936107 80.940177,37.2332462 C73.3942826,30.2714776 65.0522359,17.1075846 65.0522359,17.1075846" id="Fill-19" fill="#CED0D8" mask="url(#mask-9)"></path>
                        </g>
                        <g id="Group-24">
                            <mask id="mask-11" fill="white">
                                <use xlink:href="#path-10"></use>
                            </mask>
                            <g id="Clip-23"></g>
                            <path d="M22.3392998,27.2385166 C23.4780643,24.4456651 27.4546131,24.4175821 28.7590671,27.1360138 C33.1779227,36.3486326 43.7258868,54.3638589 60.1403837,58.4639727 C82.4312424,64.0314219 68.6762029,78.5404891 55.9981454,73.3802431 C43.321492,68.2214012 23.8768425,47.8710759 21.6372255,37.306262 C20.7413787,33.0811789 21.3212921,29.7336887 22.3392998,27.2385166" id="Fill-22" fill="#8F9096" mask="url(#mask-11)"></path>
                        </g>
                    </g>
                    <g id="Group-28" transform="translate(0, 24.5002)">
                        <mask id="mask-13" fill="white">
                            <use xlink:href="#path-12"></use>
                        </mask>
                        <g id="Clip-27"></g>
                        <path d="M58.2122089,42.316314 C58.2122089,42.316314 19.2541066,-9.87869697 2.60511686,1.6676168 C-14.0438728,13.2139306 54.5473811,45.7606905 54.5473811,45.7606905 L58.2122089,42.316314 Z" id="Fill-26" fill="#B9BAC0" mask="url(#mask-13)"></path>
                    </g>
                    <g id="Group-31" transform="translate(0.0004, 24.4996)">
                        <mask id="mask-15" fill="white">
                            <use xlink:href="#path-14"></use>
                        </mask>
                        <g id="Clip-30"></g>
                        <path d="M62.2532324,42.5809461 C62.2532324,42.5809461 28.237733,-12.9615551 10.6016269,-2.98929191 C-7.03447929,6.98437545 58.2893209,45.6756896 58.2893209,45.6756896 L62.2532324,42.5809461 Z" id="Fill-29" fill="#F5909A" mask="url(#mask-15)"></path>
                    </g>
                    <path d="M69.1992503,56.5758142 C69.1992503,56.5758142 46.8845211,-7.01807502 27.4876126,0.641555486 C8.09210826,8.30118599 64.6666587,59.1903388 64.6666587,59.1903388 L69.1992503,56.5758142 Z" id="Fill-32" fill="#B9BAC0"></path>
                    <g id="Group-36" transform="translate(23.4389, 0)">
                        <mask id="mask-17" fill="white">
                            <use xlink:href="#path-16"></use>
                        </mask>
                        <g id="Clip-35"></g>
                        <path d="M49.5753088,57.8725454 C49.5753088,57.8725454 32.9951224,-7.91321974 13.1067619,-2.12251099 C-6.7830027,3.66819775 44.8559655,60.051784 44.8559655,60.051784 L49.5753088,57.8725454 Z" id="Fill-34" fill="#F5909A" mask="url(#mask-17)"></path>
                    </g>
                    <g id="Group-63" transform="translate(47.5252, 18.0738)">
                        <path d="M36.8158368,21.8670809 C33.6368444,20.7114666 30.1208564,20.7915031 27.0120714,22.2490093 C23.3767307,23.9508374 18.5099518,27.5019292 13.664235,34.8989839 C4.05143384,49.5709324 -4.77504414,80.2220917 2.94496475,84.6746469 C10.6649736,89.1286062 25.2400359,94.8238328 43.1415261,93.3312229 C61.0444205,91.8372088 81.8005448,83.2859439 81.8920011,66.332254 C81.9746593,50.5791111 54.4575595,28.2798275 36.8158368,21.8670809" id="Fill-37" fill="#B9BAC0"></path>
                        <path d="M43.7163846,69.8323752 C43.7163846,69.8323752 22.7075135,79.0885226 23.4011629,86.9573712 C24.0962165,94.8262199 52.1005557,100.149347 69.690325,86.9573712 C87.2800943,73.7653953 68.3591921,65.5314681 55.2528693,66.5242011 C47.5019691,67.5520379 43.7163846,69.8323752 43.7163846,69.8323752" id="Fill-39" fill="#CED0D8"></path>
                        <path d="M48.6974612,79.7755725 C48.6974612,79.7755725 50.3557607,84.4991283 54.3674132,83.2648817 C58.3790657,82.0306351 56.5550767,77.9192881 56.5550767,77.9192881 C56.5550767,77.9192881 53.4968411,75.7470702 51.8497748,73.9511642 C51.8497748,73.9511642 50.5874452,79.8345467 48.6974612,79.7755725" id="Fill-41" fill="#FFFFFF"></path>
                        <path d="M55.253431,66.5240607 C55.253431,66.5240607 47.7805522,65.8879814 43.7169462,69.8322347 L49.1032602,73.7118973 C50.6295697,74.8113456 52.7371967,74.0896132 53.3465972,72.2614118 L55.253431,66.5240607 Z" id="Fill-43" fill="#4D5056"></path>
                        <path d="M18.7117279,64.0583758 C18.7117279,68.8437141 22.4257009,72.7247808 27.0060336,72.7247808 C31.5863662,72.7247808 35.3003392,68.8437141 35.3003392,64.0583758 C35.3003392,59.2716333 31.5863662,55.3919707 27.0060336,55.3919707 C22.4257009,55.3919707 18.7117279,59.2716333 18.7117279,64.0583758" id="Fill-45" fill="#FFFFFF"></path>
                        <path d="M27.0058932,64.0583758 L21.1477853,64.0583758 C21.1477853,67.415695 23.7932012,70.1790594 27.0058932,70.1790594 C30.2185851,70.1790594 32.864001,67.415695 32.864001,64.0583758 C32.864001,60.7010565 30.2185851,57.9376921 27.0058932,57.9376921 C25.3672518,57.9376921 23.8002219,58.6566162 22.6909446,59.9189458 L27.0058932,64.0583758 Z" id="Fill-47" fill="#4D5056"></path>
                        <path d="M54.1223893,55.392392 C54.1223893,60.1777304 57.8363623,64.058797 62.4166949,64.058797 C66.9970276,64.058797 70.7110006,60.1777304 70.7110006,55.392392 C70.7110006,50.6070536 66.9970276,46.725987 62.4166949,46.725987 C57.8363623,46.725987 54.1223893,50.6070536 54.1223893,55.392392" id="Fill-49" fill="#FFFFFF"></path>
                        <path d="M62.4164141,55.392392 L56.5583062,55.392392 C56.5583062,58.7497112 59.2037222,61.5130757 62.4164141,61.5130757 C65.6291061,61.5130757 68.274522,58.7497112 68.274522,55.392392 C68.274522,52.0350727 65.6291061,49.2717083 62.4164141,49.2717083 C60.7777727,49.2717083 59.2107429,49.9906324 58.1014655,51.252962 L62.4164141,55.392392 Z" id="Fill-51" fill="#4D5056"></path>
                        <path d="M60.1359364,74.2315727 C60.1359364,74.2315727 60.2988176,77.0314449 57.5256242,77.8851673 C54.7510266,78.7374854 50.9991416,72.7249212 50.9991416,72.7249212 C50.9991416,72.7249212 52.6307622,77.7138611 47.8987815,80.2708157 C43.1668008,82.8291744 42.025228,78.3962773 42.025228,78.3962773" id="Stroke-53" stroke="#4D5056" stroke-linecap="round" stroke-linejoin="round"></path>
                        <path d="M25.2185524,47.5955762 C25.2185524,47.5955762 13.7017258,47.3681041 12.7707753,59.643171" id="Stroke-55" stroke="#4D5056" stroke-width="2" stroke-linecap="round" stroke-linejoin="round"></path>
                        <path d="M55.0597989,39.9457747 C55.0597989,39.9457747 64.5504391,33.417888 72.0836963,43.1542542" id="Stroke-57" stroke="#4D5056" stroke-width="2" stroke-linecap="round" stroke-linejoin="round"></path>
                        <path d="M30.4603795,27.6059766 C30.4603795,27.6059766 38.5567002,9.40399854 46.2767091,7.81450235 C53.996718,6.22360201 45.859677,20.1457352 45.859677,20.1457352 C45.859677,20.1457352 58.9365127,2.72165545 74.6124274,0.208229495 C90.2883422,-2.30660061 63.3553683,18.7879235 63.3553683,18.7879235 C63.3553683,18.7879235 82.2664413,7.99142507 85.4215632,15.2915935 C88.5766851,22.5931662 68.6728789,26.4910826 68.6728789,26.4910826 C68.6728789,26.4910826 86.9043441,21.7183816 87.5727188,30.4676314 C88.2396894,39.2168812 51.4861003,34.6014448 51.4861003,34.6014448 C51.4861003,34.6014448 59.9138001,38.1272619 55.4387786,41.9914788 C50.9623529,45.8542915 29.1924333,34.6323361 30.4603795,27.6059766" id="Fill-59" fill="#B9BAC0"></path>
                        <path d="M6.3145001,140.72545 C7.63018732,136.371185 11.6404357,132.766736 16.9776044,131.525468 C22.1013426,130.333346 28.9297171,131.066312 35.7496668,138.770875 C49.3881619,154.180002 35.7496668,188.298004 35.7496668,188.298004 C35.7496668,188.298004 53.9333909,191.232674 53.9333909,199.671607 C53.9333909,208.109136 25.7465123,209.162248 14.6088058,195.612214 C4.78959474,183.664313 2.00376396,154.990195 6.3145001,140.72545" id="Fill-61" fill="#B9BAC0"></path>
                    </g>
                    <g id="Group-70" transform="translate(51.8747, 149.143)">
                        <g id="Group-66">
                            <mask id="mask-19" fill="white">
                                <use xlink:href="#path-18"></use>
                            </mask>
                            <g id="Clip-65"></g>
                            <path d="M48.2139891,74.7565895 C48.3782745,73.5911462 48.2294348,72.209464 47.8615478,70.9738133 C47.4950651,69.714292 46.8856646,68.5207657 46.1119787,67.4297423 C45.3144223,66.3541644 44.3539847,65.3909185 43.2854276,64.5470252 C42.7588719,64.1159516 42.1705336,63.7663186 41.6130867,63.3689446 L39.8171806,62.3649783 L41.6987397,63.2158924 C42.2912904,63.5655254 42.9189448,63.8702256 43.4904333,64.2619831 C44.6488559,65.027244 45.727242,65.9329199 46.6610008,66.9930521 C47.5736974,68.070034 48.3403625,69.2916433 48.8584933,70.6354135 C49.3724117,71.9932251 49.686941,73.3805239 49.6040962,74.9559786 C49.583034,75.3449278 49.2530591,75.6426073 48.8641099,75.6215451 C48.4765649,75.601887 48.1788854,75.2705079 48.1985435,74.8829629 C48.1999476,74.8619007 48.2013518,74.8422426 48.2041601,74.8225845 L48.2139891,74.7565895 Z" id="Fill-64" fill="#4D5056" mask="url(#mask-19)"></path>
                        </g>
                        <g id="Group-69">
                            <mask id="mask-21" fill="white">
                                <use xlink:href="#path-20"></use>
                            </mask>
                            <g id="Clip-68"></g>
                            <path d="M35.9434155,76.7309629 C36.1526337,75.5739444 36.089447,74.1964747 35.8423168,72.9341451 C35.5965908,71.6493492 35.1486674,70.3982528 34.5575209,69.2061306 C33.9270582,68.037879 33.1870719,66.9117518 32.2954375,65.8993607 C31.8741929,65.372805 31.3630829,64.9262858 30.8983097,64.4320255 C30.3998369,63.9756772 29.8746854,63.5460077 29.360767,63.0980843 C29.9083849,63.4982667 30.4714485,63.8844075 31.0134499,64.2986313 C31.5217516,64.7535755 32.0777945,65.1621827 32.5509926,65.6592513 C33.5437256,66.6098599 34.4058728,67.6952668 35.1683255,68.8607101 C35.891462,70.0472156 36.4826086,71.3306074 36.8673453,72.6912274 C37.2436571,74.0658889 37.4655126,75.4391462 37.3250977,76.9809013 C37.289994,77.3684463 36.9473818,77.6534885 36.5612409,77.6183848 C36.1736959,77.5832811 35.8886537,77.2406688 35.9237574,76.8545279 C35.9251616,76.8334657 35.9279699,76.8138076 35.9321823,76.7941496 L35.9434155,76.7309629 Z" id="Fill-67" fill="#4D5056" mask="url(#mask-21)"></path>
                        </g>
                    </g>
                    <g id="Group-81" transform="translate(62.9046, 112.5237)">
                        <path d="M0.659668892,8.81541476 C1.53726175,5.92988943 5.4927483,5.53391953 7.04292833,8.12176536 C12.2916357,16.8878649 24.4543707,33.8555964 41.1777803,36.4237841 C63.8870753,39.9130933 51.5277595,55.6283243 38.4284574,51.6587962 C25.3305594,47.6906723 4.09140802,29.2176936 0.88854511,18.9056265 C-0.392038395,14.7802379 -0.123846016,11.3934315 0.659668892,8.81541476" id="Fill-71" fill="#B9BAC0"></path>
                        <path d="M78.3406787,3.59521158 C77.1064321,3.98416074 76.1207198,5.02744313 75.8075946,6.28275196 C74.4371456,11.7715688 84.1033045,20.3045797 82.1697919,5.80534145 C81.8524543,3.42952205 80.5606376,2.89594559 78.3406787,3.59521158" id="Fill-73" fill="#F5909A"></path>
                        <path d="M82.4874103,3.16385714 C82.5267264,3.33656741 82.5857007,3.50927769 82.6994367,3.64407595 C82.8847843,3.86593143 83.1824638,3.95439279 83.4689101,3.9923048 C85.2058419,4.22679761 88.2528443,2.06862125 86.2196372,0.470700164 C84.4293478,-0.937660862 82.0099998,1.06605916 82.4874103,3.16385714" id="Fill-75" fill="#F5909A"></path>
                        <path d="M84.2117047,7.1742459 C84.2510209,7.34695617 84.3099951,7.51966645 84.4237312,7.65446471 C84.6090788,7.87632019 84.9067583,7.96478155 85.1932046,8.00409771 C86.9301364,8.23718637 89.9771388,6.07901001 87.9439317,4.48108892 C86.1536422,3.0727279 83.7342942,5.07644792 84.2117047,7.1742459" id="Fill-77" fill="#F5909A"></path>
                        <path d="M84.5211601,11.3994694 C84.5225832,11.5763921 84.5422413,11.7575273 84.6236819,11.9147919 C84.7556719,12.170347 85.0280767,12.3233992 85.2976732,12.4230937 C86.9433354,13.0296859 90.3863077,11.5876253 88.7518787,9.58530942 C87.3112223,7.82029466 84.5127542,9.24831376 84.5211601,11.3994694" id="Fill-79" fill="#F5909A"></path>
                    </g>
                </g>
            </g>
        </g>
    </g>
</svg>