<?xml version="1.0" encoding="UTF-8"?>
<svg width="256px" height="256px" viewBox="0 0 256 256" version="1.1" xmlns="http://www.w3.org/2000/svg" xmlns:xlink="http://www.w3.org/1999/xlink">
    <title>turtle</title>
    <defs>
        <linearGradient x1="50%" y1="0%" x2="50%" y2="100%" id="linearGradient-1">
            <stop stop-color="#FF7A7A" offset="0%"></stop>
            <stop stop-color="#FF5252" offset="100%"></stop>
        </linearGradient>
        <path d="M17.6882479,1.33751327 C11.6496344,6.3052021 -1.02322771,25.9794435 0.0659772947,34.3198594 L0.0659772947,34.3198594 C1.15670566,42.658752 26.2434581,54.9005022 27.0447473,44.4746014 L27.0447473,44.4746014 C27.6007751,37.2401475 34.6585188,24.1696875 38.923937,16.8499252 L38.923937,16.8499252 C41.4755711,12.4702547 40.0649364,6.78201492 35.6837425,4.23190419 L35.6837425,4.23190419 C31.6072214,1.860027 26.3805608,0 22.3329836,0 L22.3329836,0 C20.4531529,0 18.8277239,0.402168001 17.6882479,1.33751327" id="path-2"></path>
        <path d="M41.9246343,10.121228 C10.3102687,28.9774231 2.38877782,65.5533841 0.417545274,81.3994127 L0.417545274,81.3994127 C-0.112585272,85.6678776 -0.129342272,89.9805201 0.318526637,94.2566018 L0.318526637,94.2566018 L2.98593637,119.652597 C26.0161479,165.05188 46.9684913,158.924912 64.2647621,157.124296 L64.2647621,157.124296 C81.6173973,155.317587 175.237233,149.559272 156.14187,77.1370412 L156.14187,77.1370412 C142.25184,24.4606499 109.87884,-0.00304672728 77.4494744,0 L77.4494744,0 C65.2930326,0 53.1244038,3.44127846 41.9246343,10.121228" id="path-4"></path>
        <path d="M41.9246343,10.121228 C10.3102687,28.9774231 2.38877782,65.5533841 0.417545274,81.3994127 L0.417545274,81.3994127 C-0.112585272,85.6678776 -0.129342272,89.9805201 0.318526637,94.2566018 L0.318526637,94.2566018 L2.98593637,119.652597 C26.0161479,165.05188 46.9684913,158.924912 64.2647621,157.124296 L64.2647621,157.124296 C81.6173973,155.317587 175.237233,149.559272 156.14187,77.1370412 L156.14187,77.1370412 C142.25184,24.4606499 109.87884,-0.00304672728 77.4494744,0 L77.4494744,0 C65.2930326,0 53.1244038,3.44127846 41.9246343,10.121228" id="path-6"></path>
        <path d="M41.9246343,10.121228 C10.3102687,28.9774231 2.38877782,65.5533841 0.417545274,81.3994127 L0.417545274,81.3994127 C-0.112585272,85.6678776 -0.129342272,89.9805201 0.318526637,94.2566018 L0.318526637,94.2566018 L2.98593637,119.652597 C26.0161479,165.05188 46.9684913,158.924912 64.2647621,157.124296 L64.2647621,157.124296 C81.6173973,155.317587 175.237233,149.559272 156.14187,77.1370412 L156.14187,77.1370412 C142.25184,24.4606499 109.87884,-0.00304672728 77.4494744,0 L77.4494744,0 C65.2930326,0 53.1244038,3.44127846 41.9246343,10.121228" id="path-8"></path>
        <path d="M41.9246343,10.121228 C10.3102687,28.9774231 2.38877782,65.5533841 0.417545274,81.3994127 L0.417545274,81.3994127 C-0.112585272,85.6678776 -0.129342272,89.9805201 0.318526637,94.2566018 L0.318526637,94.2566018 L2.98593637,119.652597 C26.0161479,165.05188 46.9684913,158.924912 64.2647621,157.124296 L64.2647621,157.124296 C81.6173973,155.317587 175.237233,149.559272 156.14187,77.1370412 L156.14187,77.1370412 C142.25184,24.4606499 109.87884,-0.00304672728 77.4494744,0 L77.4494744,0 C65.2930326,0 53.1244038,3.44127846 41.9246343,10.121228" id="path-10"></path>
        <path d="M41.9246343,10.121228 C10.3102687,28.9774231 2.38877782,65.5533841 0.417545274,81.3994127 L0.417545274,81.3994127 C-0.112585272,85.6678776 -0.129342272,89.9805201 0.318526637,94.2566018 L0.318526637,94.2566018 L2.98593637,119.652597 C26.0161479,165.05188 46.9684913,158.924912 64.2647621,157.124296 L64.2647621,157.124296 C81.6173973,155.317587 175.237233,149.559272 156.14187,77.1370412 L156.14187,77.1370412 C142.25184,24.4606499 109.87884,-0.00304672728 77.4494744,0 L77.4494744,0 C65.2930326,0 53.1244038,3.44127846 41.9246343,10.121228" id="path-12"></path>
        <path d="M41.9246343,10.121228 C10.3102687,28.9774231 2.38877782,65.5533841 0.417545274,81.3994127 L0.417545274,81.3994127 C-0.112585272,85.6678776 -0.129342272,89.9805201 0.318526637,94.2566018 L0.318526637,94.2566018 L2.98593637,119.652597 C26.0161479,165.05188 46.9684913,158.924912 64.2647621,157.124296 L64.2647621,157.124296 C81.6173973,155.317587 175.237233,149.559272 156.14187,77.1370412 L156.14187,77.1370412 C142.25184,24.4606499 109.87884,-0.00304672728 77.4494744,0 L77.4494744,0 C65.2930326,0 53.1244038,3.44127846 41.9246343,10.121228" id="path-14"></path>
        <path d="M41.9246343,10.121228 C10.3102687,28.9774231 2.38877782,65.5533841 0.417545274,81.3994127 L0.417545274,81.3994127 C-0.112585272,85.6678776 -0.129342272,89.9805201 0.318526637,94.2566018 L0.318526637,94.2566018 L2.98593637,119.652597 C26.0161479,165.05188 46.9684913,158.924912 64.2647621,157.124296 L64.2647621,157.124296 C81.6173973,155.317587 175.237233,149.559272 156.14187,77.1370412 L156.14187,77.1370412 C142.25184,24.4606499 109.87884,-0.00304672728 77.4494744,0 L77.4494744,0 C65.2930326,0 53.1244038,3.44127846 41.9246343,10.121228" id="path-16"></path>
        <path d="M41.9246343,10.121228 C10.3102687,28.9774231 2.38877782,65.5533841 0.417545274,81.3994127 L0.417545274,81.3994127 C-0.112585272,85.6678776 -0.129342272,89.9805201 0.318526637,94.2566018 L0.318526637,94.2566018 L2.98593637,119.652597 C26.0161479,165.05188 46.9684913,158.924912 64.2647621,157.124296 L64.2647621,157.124296 C81.6173973,155.317587 175.237233,149.559272 156.14187,77.1370412 L156.14187,77.1370412 C142.25184,24.4606499 109.87884,-0.00304672728 77.4494744,0 L77.4494744,0 C65.2930326,0 53.1244038,3.44127846 41.9246343,10.121228" id="path-18"></path>
        <path d="M41.9246343,10.121228 C10.3102687,28.9774231 2.38877782,65.5533841 0.417545274,81.3994127 L0.417545274,81.3994127 C-0.112585272,85.6678776 -0.129342272,89.9805201 0.318526637,94.2566018 L0.318526637,94.2566018 L2.98593637,119.652597 C26.0161479,165.05188 46.9684913,158.924912 64.2647621,157.124296 L64.2647621,157.124296 C81.6173973,155.317587 175.237233,149.559272 156.14187,77.1370412 L156.14187,77.1370412 C142.25184,24.4606499 109.87884,-0.00304672728 77.4494744,0 L77.4494744,0 C65.2930326,0 53.1244038,3.44127846 41.9246343,10.121228" id="path-20"></path>
        <path d="M41.9246343,10.121228 C10.3102687,28.9774231 2.38877782,65.5533841 0.417545274,81.3994127 L0.417545274,81.3994127 C-0.112585272,85.6678776 -0.129342272,89.9805201 0.318526637,94.2566018 L0.318526637,94.2566018 L2.98593637,119.652597 C26.0161479,165.05188 46.9684913,158.924912 64.2647621,157.124296 L64.2647621,157.124296 C81.6173973,155.317587 175.237233,149.559272 156.14187,77.1370412 L156.14187,77.1370412 C142.25184,24.4606499 109.87884,-0.00304672728 77.4494744,0 L77.4494744,0 C65.2930326,0 53.1244038,3.44127846 41.9246343,10.121228" id="path-22"></path>
        <path d="M41.9246343,10.121228 C10.3102687,28.9774231 2.38877782,65.5533841 0.417545274,81.3994127 L0.417545274,81.3994127 C-0.112585272,85.6678776 -0.129342272,89.9805201 0.318526637,94.2566018 L0.318526637,94.2566018 L2.98593637,119.652597 C26.0161479,165.05188 46.9684913,158.924912 64.2647621,157.124296 L64.2647621,157.124296 C81.6173973,155.317587 175.237233,149.559272 156.14187,77.1370412 L156.14187,77.1370412 C142.25184,24.4606499 109.87884,-0.00304672728 77.4494744,0 L77.4494744,0 C65.2930326,0 53.1244038,3.44127846 41.9246343,10.121228" id="path-24"></path>
        <path d="M41.9246343,10.121228 C10.3102687,28.9774231 2.38877782,65.5533841 0.417545274,81.3994127 L0.417545274,81.3994127 C-0.112585272,85.6678776 -0.129342272,89.9805201 0.318526637,94.2566018 L0.318526637,94.2566018 L2.98593637,119.652597 C26.0161479,165.05188 46.9684913,158.924912 64.2647621,157.124296 L64.2647621,157.124296 C81.6173973,155.317587 175.237233,149.559272 156.14187,77.1370412 L156.14187,77.1370412 C142.25184,24.4606499 109.87884,-0.00304672728 77.4494744,0 L77.4494744,0 C65.2930326,0 53.1244038,3.44127846 41.9246343,10.121228" id="path-26"></path>
        <path d="M41.9246343,10.121228 C10.3102687,28.9774231 2.38877782,65.5533841 0.417545274,81.3994127 L0.417545274,81.3994127 C-0.112585272,85.6678776 -0.129342272,89.9805201 0.318526637,94.2566018 L0.318526637,94.2566018 L2.98593637,119.652597 C26.0161479,165.05188 46.9684913,158.924912 64.2647621,157.124296 L64.2647621,157.124296 C81.6173973,155.317587 175.237233,149.559272 156.14187,77.1370412 L156.14187,77.1370412 C142.25184,24.4606499 109.87884,-0.00304672728 77.4494744,0 L77.4494744,0 C65.2930326,0 53.1244038,3.44127846 41.9246343,10.121228" id="path-28"></path>
        <path d="M41.9246343,10.121228 C10.3102687,28.9774231 2.38877782,65.5533841 0.417545274,81.3994127 L0.417545274,81.3994127 C-0.112585272,85.6678776 -0.129342272,89.9805201 0.318526637,94.2566018 L0.318526637,94.2566018 L2.98593637,119.652597 C26.0161479,165.05188 46.9684913,158.924912 64.2647621,157.124296 L64.2647621,157.124296 C81.6173973,155.317587 175.237233,149.559272 156.14187,77.1370412 L156.14187,77.1370412 C142.25184,24.4606499 109.87884,-0.00304672728 77.4494744,0 L77.4494744,0 C65.2930326,0 53.1244038,3.44127846 41.9246343,10.121228" id="path-30"></path>
        <path d="M41.9246343,10.121228 C10.3102687,28.9774231 2.38877782,65.5533841 0.417545274,81.3994127 L0.417545274,81.3994127 C-0.112585272,85.6678776 -0.129342272,89.9805201 0.318526637,94.2566018 L0.318526637,94.2566018 L2.98593637,119.652597 C26.0161479,165.05188 46.9684913,158.924912 64.2647621,157.124296 L64.2647621,157.124296 C81.6173973,155.317587 175.237233,149.559272 156.14187,77.1370412 L156.14187,77.1370412 C142.25184,24.4606499 109.87884,-0.00304672728 77.4494744,0 L77.4494744,0 C65.2930326,0 53.1244038,3.44127846 41.9246343,10.121228" id="path-32"></path>
        <path d="M41.9246343,10.121228 C10.3102687,28.9774231 2.38877782,65.5533841 0.417545274,81.3994127 L0.417545274,81.3994127 C-0.112585272,85.6678776 -0.129342272,89.9805201 0.318526637,94.2566018 L0.318526637,94.2566018 L2.98593637,119.652597 C26.0161479,165.05188 46.9684913,158.924912 64.2647621,157.124296 L64.2647621,157.124296 C81.6173973,155.317587 175.237233,149.559272 156.14187,77.1370412 L156.14187,77.1370412 C142.25184,24.4606499 109.87884,-0.00304672728 77.4494744,0 L77.4494744,0 C65.2930326,0 53.1244038,3.44127846 41.9246343,10.121228" id="path-34"></path>
        <path d="M41.9246343,10.121228 C10.3102687,28.9774231 2.38877782,65.5533841 0.417545274,81.3994127 L0.417545274,81.3994127 C-0.112585272,85.6678776 -0.129342272,89.9805201 0.318526637,94.2566018 L0.318526637,94.2566018 L2.98593637,119.652597 C26.0161479,165.05188 46.9684913,158.924912 64.2647621,157.124296 L64.2647621,157.124296 C81.6173973,155.317587 175.237233,149.559272 156.14187,77.1370412 L156.14187,77.1370412 C142.25184,24.4606499 109.87884,-0.00304672728 77.4494744,0 L77.4494744,0 C65.2930326,0 53.1244038,3.44127846 41.9246343,10.121228" id="path-36"></path>
        <path d="M41.9246343,10.121228 C10.3102687,28.9774231 2.38877782,65.5533841 0.417545274,81.3994127 L0.417545274,81.3994127 C-0.112585272,85.6678776 -0.129342272,89.9805201 0.318526637,94.2566018 L0.318526637,94.2566018 L2.98593637,119.652597 C26.0161479,165.05188 46.9684913,158.924912 64.2647621,157.124296 L64.2647621,157.124296 C81.6173973,155.317587 175.237233,149.559272 156.14187,77.1370412 L156.14187,77.1370412 C142.25184,24.4606499 109.87884,-0.00304672728 77.4494744,0 L77.4494744,0 C65.2930326,0 53.1244038,3.44127846 41.9246343,10.121228" id="path-38"></path>
        <path d="M41.9246343,10.121228 C10.3102687,28.9774231 2.38877782,65.5533841 0.417545274,81.3994127 L0.417545274,81.3994127 C-0.112585272,85.6678776 -0.129342272,89.9805201 0.318526637,94.2566018 L0.318526637,94.2566018 L2.98593637,119.652597 C26.0161479,165.05188 46.9684913,158.924912 64.2647621,157.124296 L64.2647621,157.124296 C81.6173973,155.317587 175.237233,149.559272 156.14187,77.1370412 L156.14187,77.1370412 C142.25184,24.4606499 109.87884,-0.00304672728 77.4494744,0 L77.4494744,0 C65.2930326,0 53.1244038,3.44127846 41.9246343,10.121228" id="path-40"></path>
        <path d="M41.9246343,10.121228 C10.3102687,28.9774231 2.38877782,65.5533841 0.417545274,81.3994127 L0.417545274,81.3994127 C-0.112585272,85.6678776 -0.129342272,89.9805201 0.318526637,94.2566018 L0.318526637,94.2566018 L2.98593637,119.652597 C26.0161479,165.05188 46.9684913,158.924912 64.2647621,157.124296 L64.2647621,157.124296 C81.6173973,155.317587 175.237233,149.559272 156.14187,77.1370412 L156.14187,77.1370412 C142.25184,24.4606499 109.87884,-0.00304672728 77.4494744,0 L77.4494744,0 C65.2930326,0 53.1244038,3.44127846 41.9246343,10.121228" id="path-42"></path>
        <path d="M41.9246343,10.121228 C10.3102687,28.9774231 2.38877782,65.5533841 0.417545274,81.3994127 L0.417545274,81.3994127 C-0.112585272,85.6678776 -0.129342272,89.9805201 0.318526637,94.2566018 L0.318526637,94.2566018 L2.98593637,119.652597 C26.0161479,165.05188 46.9684913,158.924912 64.2647621,157.124296 L64.2647621,157.124296 C81.6173973,155.317587 175.237233,149.559272 156.14187,77.1370412 L156.14187,77.1370412 C142.25184,24.4606499 109.87884,-0.00304672728 77.4494744,0 L77.4494744,0 C65.2930326,0 53.1244038,3.44127846 41.9246343,10.121228" id="path-44"></path>
        <path d="M41.9246343,10.121228 C10.3102687,28.9774231 2.38877782,65.5533841 0.417545274,81.3994127 L0.417545274,81.3994127 C-0.112585272,85.6678776 -0.129342272,89.9805201 0.318526637,94.2566018 L0.318526637,94.2566018 L2.98593637,119.652597 C26.0161479,165.05188 46.9684913,158.924912 64.2647621,157.124296 L64.2647621,157.124296 C81.6173973,155.317587 175.237233,149.559272 156.14187,77.1370412 L156.14187,77.1370412 C142.25184,24.4606499 109.87884,-0.00304672728 77.4494744,0 L77.4494744,0 C65.2930326,0 53.1244038,3.44127846 41.9246343,10.121228" id="path-46"></path>
        <path d="M3.61834104,3.69415682 C-0.982217151,10.22177 -0.0468718773,14.9106833 0.367483032,20.7192689 L0.367483032,20.7192689 C0.86866967,27.7587322 9.87784223,44.6787322 18.2868095,46.0665164 L18.2868095,46.0665164 C26.6973002,47.4543007 37.379126,43.1188078 32.7816145,21.5632123 L32.7816145,21.5632123 C29.7653545,7.42335101 19.7614255,2.24086791 13.2338123,0.350373637 L13.2338123,0.350373637 C12.4203361,0.114252273 11.5916263,0 10.7720567,0 L10.7720567,0 C7.97516104,0 5.28337749,1.32989646 3.61834104,3.69415682" id="path-48"></path>
        <path d="M4.8479593,3.67739982 C0.361653385,6.03861346 -1.28814944,11.662872 1.0776343,16.1461312 L1.0776343,16.1461312 C5.02923957,23.6395569 11.5279089,36.994886 11.7792639,44.2476203 L11.7792639,44.2476203 C12.1387777,54.6963715 37.7206233,43.5270693 39.1617253,35.2414944 L39.1617253,35.2414944 C40.6028273,26.9543962 28.7723852,6.76221119 22.9485661,1.54469073 L22.9485661,1.54469073 C21.7359686,0.458532455 19.9033621,0 17.7721764,0 L17.7721764,0 C13.811431,0 8.81936831,1.58429818 4.8479593,3.67739982" id="path-50"></path>
        <path d="M10.3865543,0.673326728 C0.140410465,3.9424651 -3.25821381,16.7813738 3.52075438,25.1309299 L3.52075438,25.1309299 C8.65448984,31.4528891 14.4478418,39.4292211 15.8935139,44.7716573 L15.8935139,44.7716573 C18.6233815,54.8654648 40.9894064,38.1648292 40.5080235,29.7665255 L40.5080235,29.7665255 C40.0251173,21.3697451 23.9064066,4.40099755 17.0497469,0.647429546 L17.0497469,0.647429546 C16.2332239,0.201084 15.2674114,0 14.2010569,0 L14.2010569,0 C13.0280668,0 11.7332078,0.243738182 10.3865543,0.673326728" id="path-52"></path>
        <polygon id="path-54" points="0 0 17.1712026 0 17.1712026 17.1713549 0 17.1713549"></polygon>
    </defs>
    <g id="Page-1" stroke="none" stroke-width="1" fill="none" fill-rule="evenodd">
        <g id="Extra-Large" transform="translate(-931, -31)">
            <g id="turtle" transform="translate(931, 31)">
                <rect id="Rectangle" fill="url(#linearGradient-1)" x="0" y="0" width="256" height="256"></rect>
                <g transform="translate(16, 37)">
                    <g id="Group-5" transform="translate(34.6246, 69.7765)" fill="#8AC43D">
                        <path d="M143.524045,33.9860284 C149.520004,30.2964417 167.646508,18.1110559 175.286177,1.36624279 C176.340344,-0.943176488 179.78924,-0.14036385 179.64909,2.39451324 C179.274343,9.11711698 178.387745,11.7571062 174.347785,21.7732221 C169.818825,32.9973654 157.584691,43.6121632 153.316226,48.4716932 C152.309283,49.6172627 150.485817,49.4649263 149.678434,48.1715906 L142.791307,37.1226341 C142.124074,36.0517095 142.44855,34.6471682 143.524045,33.9860284" id="Fill-1"></path>
                        <path d="M35.6823908,61.5774953 C40.0635847,64.127606 41.4757428,69.8158458 38.9225853,74.1955163 C34.6571671,81.5152786 27.6009467,94.5842152 27.0433957,101.820193 C26.2421064,112.24457 1.15535397,100.004343 0.0661489708,91.6639272 C-1.02457939,83.3235112 11.6498061,63.6507932 17.6884195,58.6831044 C21.280511,55.7277789 29.7138521,58.1042262 35.6823908,61.5774953" id="Fill-3"></path>
                    </g>
                    <g id="Group-8" transform="translate(34.6241, 127.1216)">
                        <mask id="mask-3" fill="white">
                            <use xlink:href="#path-2"></use>
                        </mask>
                        <g id="Clip-7"></g>
                        <path d="M18.4119979,52.463882 C18.4119979,52.463882 23.7422473,34.4181164 19.2132872,33.5040982 C14.6843271,32.5916034 11.4563196,46.3993714 11.4563196,46.3993714 C11.4563196,46.3993714 14.6706168,32.9038929 11.1135627,31.7568001 C7.55498528,30.6081839 4.20358527,41.6632338 4.20358527,41.6632338 C4.20358527,41.6632338 7.04618182,29.4778481 4.74590273,28.8060447 C2.447147,28.1342414 -0.127337551,36.0526856 -0.127337551,36.0526856 C-0.127337551,36.0526856 -0.567589643,52.1424523 18.4119979,52.463882" id="Fill-6" fill="#633B0A" mask="url(#mask-3)"></path>
                    </g>
                    <path d="M42.4610194,94.2570588 C42.0116271,89.9794537 42.0283841,85.6668112 42.560038,81.3998697 C44.5312706,65.5523178 52.4527615,28.9778801 84.0671271,10.1201617 C125.141581,-14.3800957 179.187476,4.71679083 198.282839,77.1374982 C217.379726,149.558206 123.75989,155.31652 106.405731,157.124753 C89.1125075,158.925369 68.1586406,165.050814 45.1269057,119.653054 L42.4610194,94.2570588 Z" id="Fill-9" fill="#633B0A"></path>
                    <g id="Group-77" transform="translate(42.1422, 0)">
                        <g id="Group-13">
                            <mask id="mask-5" fill="white">
                                <use xlink:href="#path-4"></use>
                            </mask>
                            <g id="Clip-12"></g>
                            <path d="M7.74431503,32.0303962 C1.9052622,39.0789998 2.62428984,49.5292743 9.34080012,55.7461213 C14.6238252,60.637642 21.7531671,65.2321067 29.674658,64.8863032 C46.2488544,64.1657522 56.0775966,23.1263357 43.9942762,20.2090944 C34.2386554,17.8539742 19.4559347,17.8935816 7.74431503,32.0303962" id="Fill-11" fill="#754D1C" mask="url(#mask-5)"></path>
                        </g>
                        <g id="Group-16">
                            <mask id="mask-7" fill="white">
                                <use xlink:href="#path-6"></use>
                            </mask>
                            <g id="Clip-15"></g>
                            <path d="M53.1393328,24.3255276 C53.1393328,24.3255276 54.0426874,45.4652448 72.6642845,45.7912446 C91.287405,46.1157211 98.8524288,12.6169547 84.0803716,11.9664784 C69.3083144,11.3160021 51.963296,17.9380639 53.1393328,24.3255276" id="Fill-14" fill="#754D1C" mask="url(#mask-7)"></path>
                        </g>
                        <g id="Group-19">
                            <mask id="mask-9" fill="white">
                                <use xlink:href="#path-8"></use>
                            </mask>
                            <g id="Clip-18"></g>
                            <path d="M30.1426353,138.618322 C30.1426353,138.618322 30.983532,162.756019 48.3194102,163.126196 C65.6552884,163.497897 72.6993219,125.250806 58.9479183,124.507405 C45.1949914,123.764003 29.0473368,131.32598 30.1426353,138.618322" id="Fill-17" fill="#754D1C" mask="url(#mask-9)"></path>
                        </g>
                        <g id="Group-22">
                            <mask id="mask-11" fill="white">
                                <use xlink:href="#path-10"></use>
                            </mask>
                            <g id="Clip-21"></g>
                            <path d="M-0.000770381346,58.4013442 C-0.000770381346,58.4013442 15.76909,62.4169307 29.3148395,77.1371936 C42.8590656,91.8574564 2.65292908,119.293236 -7.79734548,103.078553 C-18.2460967,86.8653937 -0.000770381346,58.4013442 -0.000770381346,58.4013442" id="Fill-20" fill="#754D1C" mask="url(#mask-11)"></path>
                        </g>
                        <g id="Group-25">
                            <mask id="mask-13" fill="white">
                                <use xlink:href="#path-12"></use>
                            </mask>
                            <g id="Clip-24"></g>
                            <path d="M65.0042028,84.666266 C61.1302891,90.330132 53.3154336,91.5792902 47.8663619,87.4083205 C41.8125148,82.7742484 35.3275558,76.8255134 36.5203495,73.3491975 C38.6820025,67.0485655 51.0227713,47.9532023 55.6614136,47.9532023 C60.3000559,47.9532023 78.217859,52.2765083 79.3481948,56.5998143 C80.1418673,59.635878 72.0284326,74.3972717 65.0042028,84.666266" id="Fill-23" fill="#754D1C" mask="url(#mask-13)"></path>
                        </g>
                        <g id="Group-28">
                            <mask id="mask-15" fill="white">
                                <use xlink:href="#path-14"></use>
                            </mask>
                            <g id="Clip-27"></g>
                            <path d="M139.363543,118.848109 C140.407047,125.630124 135.555134,131.883531 128.725894,132.562952 C121.139544,133.315493 112.340595,133.405372 110.835512,130.052448 C108.107168,123.975751 101.591741,99.763409 104.978179,96.5932893 C108.364616,93.4231695 126.875008,86.1719586 130.654473,88.5560227 C133.308172,90.2301994 137.473048,106.551517 139.363543,118.848109" id="Fill-26" fill="#754D1C" mask="url(#mask-15)"></path>
                        </g>
                        <g id="Group-31">
                            <mask id="mask-17" fill="white">
                                <use xlink:href="#path-16"></use>
                            </mask>
                            <g id="Clip-30"></g>
                            <path d="M32.1970435,8.31924117 C32.1970435,8.31924117 37.2439472,16.2453022 49.4917909,14.4446864 C61.7396345,12.6425472 82.9996975,-3.57061203 80.8380445,-8.25495522 C78.6763915,-12.937775 45.5279987,-6.09330222 32.1970435,8.31924117" id="Fill-29" fill="#754D1C" mask="url(#mask-17)"></path>
                        </g>
                        <g id="Group-34">
                            <mask id="mask-19" fill="white">
                                <use xlink:href="#path-18"></use>
                            </mask>
                            <g id="Clip-33"></g>
                            <path d="M118.136994,43.1649657 C114.9425,34.3568772 103.640665,29.2444688 96.211221,34.6904938 C89.5830658,39.5500238 85.587283,45.72574 83.480471,51.7963441 C81.318818,58.025378 97.4116315,71.1339221 109.90169,70.6388289 C118.394442,70.3006422 122.452683,55.0654825 118.136994,43.1649657" id="Fill-32" fill="#754D1C" mask="url(#mask-19)"></path>
                        </g>
                        <g id="Group-37">
                            <mask id="mask-21" fill="white">
                                <use xlink:href="#path-20"></use>
                            </mask>
                            <g id="Clip-36"></g>
                            <path d="M97.1717017,0.0394551182 C97.1717017,0.0394551182 98.3721123,19.0479866 101.735699,24.0918436 C105.097763,29.1357006 124.074304,34.1795576 132.481748,33.4590066 C140.887668,32.7384556 130.799954,13.5227467 119.990166,6.31723667 C109.181901,-0.889796701 97.1717017,0.0394551182 97.1717017,0.0394551182" id="Fill-35" fill="#754D1C" mask="url(#mask-21)"></path>
                        </g>
                        <g id="Group-40">
                            <mask id="mask-23" fill="white">
                                <use xlink:href="#path-22"></use>
                            </mask>
                            <g id="Clip-39"></g>
                            <path d="M75.7845903,127.163541 C72.7622368,126.816215 70.1847055,129.325194 70.4939484,132.352118 C71.1109106,138.370928 72.3874894,147.686296 74.5933199,150.993519 C77.9553835,156.037376 96.9319243,161.082756 105.337845,160.362205 C113.745289,159.641654 103.657575,140.424422 92.8477864,133.218912 C86.7528085,129.154578 80.2754663,127.678438 75.7845903,127.163541" id="Fill-38" fill="#754D1C" mask="url(#mask-23)"></path>
                        </g>
                        <g id="Group-43">
                            <mask id="mask-25" fill="white">
                                <use xlink:href="#path-24"></use>
                            </mask>
                            <g id="Clip-42"></g>
                            <path d="M153.859262,53.5974169 C153.859262,53.5974169 141.608371,38.705014 131.040798,38.9457054 C120.471701,39.1848735 126.95666,69.0808849 130.079555,73.3493499 C133.202451,77.6178148 146.653752,80.3324488 152.898019,79.2158232 C159.14381,78.0976743 153.859262,53.5974169 153.859262,53.5974169" id="Fill-41" fill="#754D1C" mask="url(#mask-25)"></path>
                        </g>
                        <g id="Group-46">
                            <mask id="mask-27" fill="white">
                                <use xlink:href="#path-26"></use>
                            </mask>
                            <g id="Clip-45"></g>
                            <path d="M-2.00643095,134.98053 C-0.774029764,131.813457 -0.344441218,128.416356 -1.02233804,125.086283 C-1.9287394,120.635014 -1.67586104,114.920877 4.54555606,112.708953 C15.3553444,108.865507 23.0422374,111.214533 27.3655434,114.604018 C31.6888494,117.991978 27.6062348,146.552 8.62969398,143.561637 C-2.2136084,141.852423 -3.17485086,137.983079 -2.00643095,134.98053" id="Fill-44" fill="#754D1C" mask="url(#mask-27)"></path>
                        </g>
                        <g id="Group-49">
                            <mask id="mask-29" fill="white">
                                <use xlink:href="#path-28"></use>
                            </mask>
                            <g id="Clip-48"></g>
                            <path d="M78.5974812,1.59298136 C76.3642301,4.19031636 77.9393881,8.23637019 81.3227788,8.7680241 C85.1068141,9.36213591 89.6144471,9.65309837 91.6466142,8.19980946 C95.4809204,5.45927827 90.2055122,-3.57122138 86.6027572,-3.81038947 C84.5233658,-3.94901556 81.6061244,-1.90618492 78.5974812,1.59298136" id="Fill-47" fill="#754D1C" mask="url(#mask-29)"></path>
                        </g>
                        <g id="Group-52">
                            <mask id="mask-31" fill="white">
                                <use xlink:href="#path-30"></use>
                            </mask>
                            <g id="Clip-51"></g>
                            <path d="M27.2394089,106.818106 C27.2394089,106.818106 32.5955554,117.795464 38.5092531,121.379939 C44.4229507,124.964414 61.6872308,105.36177 61.0855022,100.595166 C60.4837736,95.8285607 43.1859794,86.7310331 38.5092531,89.0815832 C33.8340501,91.4321333 25.0290082,102.814706 27.2394089,106.818106" id="Fill-50" fill="#754D1C" mask="url(#mask-31)"></path>
                        </g>
                        <g id="Group-55">
                            <mask id="mask-33" fill="white">
                                <use xlink:href="#path-32"></use>
                            </mask>
                            <g id="Clip-54"></g>
                            <path d="M99.8634853,92.3732673 C106.016351,87.3415972 105.400912,77.7596399 98.6889719,73.5003152 C94.3991799,70.7780644 90.0149394,68.3940003 87.3231558,68.0101126 C80.5975054,67.0488702 65.7051024,92.2696786 68.5873064,105.24112 C70.6027165,114.311227 87.6552491,102.355869 99.8634853,92.3732673" id="Fill-53" fill="#754D1C" mask="url(#mask-33)"></path>
                        </g>
                        <g id="Group-58">
                            <mask id="mask-35" fill="white">
                                <use xlink:href="#path-34"></use>
                            </mask>
                            <g id="Clip-57"></g>
                            <path d="M110.506465,75.4678917 C109.030326,76.2295735 108.032523,77.6584886 107.816205,79.3052447 C107.350056,82.8501119 106.864103,88.7927534 108.701279,89.6275567 C111.342792,90.8279672 130.560024,85.3042507 129.118922,80.2603937 C127.67782,75.2150133 122.63244,69.9304648 119.990927,70.8917073 C118.193358,71.5452303 113.390193,73.9795654 110.506465,75.4678917" id="Fill-56" fill="#754D1C" mask="url(#mask-35)"></path>
                        </g>
                        <g id="Group-61">
                            <mask id="mask-37" fill="white">
                                <use xlink:href="#path-36"></use>
                            </mask>
                            <g id="Clip-60"></g>
                            <path d="M163.467421,91.3090455 C163.467421,91.3090455 162.74687,83.6221526 160.825908,83.3829845 C158.903423,83.142293 137.526062,80.7399486 135.364409,83.142293 C133.202756,85.5446375 135.364409,93.230007 141.608676,99.4757979 C147.854467,105.721589 164.23672,95.911127 163.467421,91.3090455" id="Fill-59" fill="#754D1C" mask="url(#mask-37)"></path>
                        </g>
                        <g id="Group-64">
                            <mask id="mask-39" fill="white">
                                <use xlink:href="#path-38"></use>
                            </mask>
                            <g id="Clip-63"></g>
                            <path d="M113.265277,154.001705 C113.265277,154.001705 106.780318,138.14806 110.383073,137.427509 C113.985828,136.706958 131.039884,135.986407 136.324432,139.829853 C141.608981,143.6733 118.839264,154.877639 113.265277,154.001705" id="Fill-62" fill="#754D1C" mask="url(#mask-39)"></path>
                        </g>
                        <g id="Group-67">
                            <mask id="mask-41" fill="white">
                                <use xlink:href="#path-40"></use>
                            </mask>
                            <g id="Clip-66"></g>
                            <path d="M144.011021,137.187579 C144.011021,137.187579 142.090059,110.284977 145.211431,108.603184 C148.334327,106.922913 157.462321,100.677123 160.824385,101.156982 C164.187972,101.638365 150.977362,135.746477 144.011021,137.187579" id="Fill-65" fill="#754D1C" mask="url(#mask-41)"></path>
                        </g>
                        <g id="Group-70">
                            <mask id="mask-43" fill="white">
                                <use xlink:href="#path-42"></use>
                            </mask>
                            <g id="Clip-69"></g>
                            <path d="M81.6751328,113.253251 C79.807489,115.19554 80.0131431,118.338239 82.0773008,120.06878 C86.6138777,123.874142 95.2483028,130.400232 100.054515,129.425279 C106.780166,128.060346 100.775066,103.078705 98.1320302,102.598846 C96.1486107,102.237809 86.3945133,108.344973 81.6751328,113.253251" id="Fill-68" fill="#754D1C" mask="url(#mask-43)"></path>
                        </g>
                        <g id="Group-73">
                            <mask id="mask-45" fill="white">
                                <use xlink:href="#path-44"></use>
                            </mask>
                            <g id="Clip-72"></g>
                            <path d="M65.6533081,109.441643 C63.822225,108.64797 61.7047495,109.091269 60.3459091,110.552175 C58.129415,112.931669 55.1679961,116.656293 55.3553699,119.387684 C55.6509024,123.721654 71.1648377,123.484009 73.1513039,122.775645 C75.1377701,122.065757 76.9947504,115.088752 71.9508933,112.447239 C69.5394087,111.184371 67.3168212,110.163717 65.6533081,109.441643" id="Fill-71" fill="#754D1C" mask="url(#mask-45)"></path>
                        </g>
                        <g id="Group-76">
                            <mask id="mask-47" fill="white">
                                <use xlink:href="#path-46"></use>
                            </mask>
                            <g id="Clip-75"></g>
                            <path d="M10.9391133,135.866518 C10.9391133,135.866518 26.0722076,154.24133 62.1028044,150.638575 C98.1318778,147.03582 124.344396,135.107883 132.136401,131.704688 C139.928406,128.299971 155.127005,109.564121 158.696246,99.4764073 C162.26701,89.3871699 160.105357,139.085385 147.854467,143.780392 C135.603577,148.476922 88.5834346,169.4902 48.3194102,163.12711 C8.05690925,156.76402 10.9391133,135.866518 10.9391133,135.866518" id="Fill-74" fill="#EDA72B" mask="url(#mask-47)"></path>
                        </g>
                    </g>
                    <g id="Group-82" transform="translate(50.6575, 81.5328)" fill="#633B0A">
                        <path d="M26.9580506,56.0729672 C18.5490833,54.685183 9.53991074,37.7636597 9.0387241,30.7257197 C8.62436919,24.9171341 7.68902392,20.2282208 12.2880587,13.7006076 C14.4436183,10.6432168 18.3129619,9.31484371 21.9065768,10.3553011 C28.4326666,12.2473187 38.4350722,17.4282785 41.4513322,31.5681397 C46.0503671,53.1252586 35.3670179,57.4607515 26.9580506,56.0729672 M50.3005516,13.3974583 C38.4899133,-2.4866544 22.8708659,-1.54673903 11.8097226,2.58766989 C0.750102542,6.72360216 0.961850088,15.7891392 0.961850088,15.7891392 C-3.05068974,39.9451164 6.6592301,51.0473906 8.69901401,54.8557997 C10.7387979,58.6657322 24.4551641,68.0511755 40.9867063,64.7530933 C57.5197719,61.4565343 64.9918706,33.157008 50.3005516,13.3974583" id="Fill-78"></path>
                        <path d="M12.2886681,13.7004553 C14.4442276,10.6430645 18.3135713,9.31469138 21.9056627,10.3551487 C28.4332759,12.2471664 38.4356816,17.4296495 41.4519416,31.5679874 C46.0509764,53.1251063 35.3676272,57.4605992 26.9586599,56.0728149 C18.5481693,54.6850306 9.54052008,37.7635073 9.03781008,30.7255673 C8.62345517,24.9169818 7.68963326,20.2280685 12.2886681,13.7004553" id="Fill-80"></path>
                    </g>
                    <g id="Group-85" transform="translate(59.3286, 91.5389)">
                        <mask id="mask-49" fill="white">
                            <use xlink:href="#path-48"></use>
                        </mask>
                        <g id="Clip-84"></g>
                        <path d="M16.9956065,42.7224286 C16.9956065,42.7224286 24.9247142,33.2989011 35.8518016,32.3483222 C35.8518016,32.3483222 42.1950878,21.3724872 38.5115945,14.9804534 C34.8265779,8.58841952 27.0635168,1.71043269 27.0635168,1.71043269 C27.0635168,1.71043269 20.1139319,13.3291272 2.16718484,-0.783313583 C2.16718484,-0.783313583 -11.0876022,42.9417929 16.9956065,42.7224286" id="Fill-83" fill="#8AC43D" mask="url(#mask-49)"></path>
                    </g>
                    <g id="Group-92" transform="translate(4.2921, 84.875)">
                        <path d="M0.00351072347,65.3552817 C0.367594633,57.7841644 1.42328563,47.7208242 4.33900364,40.9433794 C9.56261756,28.8021712 7.01555355,17.536897 17.7095663,9.64892012 C28.4020557,1.76246656 56.9971145,-7.22233218 71.6869101,9.26655585 C86.3751823,25.7554439 84.1068939,50.1566826 71.4614523,58.3828463 C58.8175341,66.6090099 58.879992,75.5008835 40.9225814,80.8966375 C28.1324203,84.740084 22.7290495,83.2578511 17.7522205,81.4252447 C9.47121574,78.3739473 -0.21128355,69.8172138 0.00351072347,65.3552817" id="Fill-86" fill="#8AC43D"></path>
                        <path d="M75.449923,64.7165353 C75.449923,64.7165353 106.488457,68.3680379 132.138854,55.4346806 C132.138854,55.4346806 135.982301,44.8655837 149.914984,44.1450327 C163.846145,43.4244817 165.046555,43.2721453 169.610553,41.9072115 C174.17455,40.5422777 176.033054,24.9826415 187.066777,21.3539893 C187.066777,21.3539893 195.072053,14.8416098 196.272463,8.59581884 C196.272463,8.59581884 200.11591,7.39540829 200.356601,11.7187143 C200.597293,16.0420203 195.551912,38.4857368 162.644211,52.9653082 C129.73651,67.4448796 100.312741,72.9701195 75.449923,64.7165353" id="Fill-88" fill="#633B0A"></path>
                        <path d="M141.301582,53.2733323 C136.815276,55.6360693 135.165473,61.2588045 137.531257,65.7435871 C141.484385,73.2354894 147.983055,86.5923418 148.232886,93.8450761 C148.5924,104.293827 174.174246,93.1245251 175.615348,84.8374269 C177.05645,76.5503287 165.226008,56.359667 159.402188,51.1421466 C155.936536,48.0375315 147.411793,50.0544649 141.301582,53.2733323" id="Fill-90" fill="#8AC43D"></path>
                    </g>
                    <g id="Group-95" transform="translate(140.746, 134.4719)">
                        <mask id="mask-51" fill="white">
                            <use xlink:href="#path-50"></use>
                        </mask>
                        <g id="Clip-94"></g>
                        <path d="M20.0665144,52.594282 C20.0665144,52.594282 15.5025169,34.3398155 20.0665144,33.6177411 C24.6305119,32.8971901 27.2720244,46.829874 27.2720244,46.829874 C27.2720244,46.829874 24.6305119,33.211003 28.2332669,32.2131998 C31.8360219,31.21692 34.7182259,42.4045026 34.7182259,42.4045026 C34.7182259,42.4045026 32.393573,30.1094347 34.7182259,29.5351266 C37.0444021,28.9608185 39.2822233,36.981328 39.2822233,36.981328 C39.2822233,36.981328 39.0430552,53.0741415 20.0665144,52.594282" id="Fill-93" fill="#633B0A" mask="url(#mask-51)"></path>
                    </g>
                    <path d="M193.871026,111.187113 C183.624882,114.456251 180.224734,127.296683 187.005226,135.644716 C192.137438,141.966675 197.932313,149.941484 199.377985,155.285444 C202.107853,165.377728 224.473878,148.678615 223.990972,140.281835 C223.508065,131.883531 207.390878,114.914784 200.532695,111.161216 C198.818911,110.222824 196.439417,110.367543 193.871026,111.187113" id="Fill-96" fill="#8AC43D"></path>
                    <g id="Group-100" transform="translate(183.4843, 110.5139)">
                        <mask id="mask-53" fill="white">
                            <use xlink:href="#path-52"></use>
                        </mask>
                        <g id="Clip-99"></g>
                        <path d="M25.8633195,51.0119642 C25.8633195,51.0119642 17.2639318,34.2747679 21.5430602,32.5335632 C25.8237121,30.7938819 31.5683164,43.7577065 31.5683164,43.7577065 C31.5683164,43.7577065 25.8953102,31.0985547 29.1766354,29.307079 C32.4579607,27.5156034 37.8110605,37.7541304 37.8110605,37.7541304 C37.8110605,37.7541304 32.7473998,26.3121461 34.8816323,25.2229411 C37.0158647,24.1337361 41.0207877,31.4336947 41.0207877,31.4336947 C41.0207877,31.4336947 44.4498793,47.1609009 25.8633195,51.0119642" id="Fill-98" fill="#633B0A" mask="url(#mask-53)"></path>
                    </g>
                    <g id="Group-120" transform="translate(0, 115.994)">
                        <path d="M55.4802944,15.9706973 C55.4802944,20.7129283 51.6368479,24.5563748 46.8946169,24.5563748 C42.1523859,24.5563748 38.3089394,20.7129283 38.3089394,15.9706973 C38.3089394,11.2284663 42.1523859,7.38501983 46.8946169,7.38501983 C51.6368479,7.38501983 55.4802944,11.2284663 55.4802944,15.9706973" id="Fill-101" fill="#FFFFFF"></path>
                        <path d="M46.8946169,15.9706973 L52.9576042,15.9706973 C52.9576042,19.2977235 50.2216431,22.0336846 46.8946169,22.0336846 C43.5675907,22.0336846 40.8316296,19.2977235 40.8316296,15.9706973 C40.8316296,12.6436711 43.5675907,9.90771002 46.8946169,9.90771002 C48.591644,9.90771002 50.2125029,10.6191208 51.3611191,11.8698024 L46.8946169,15.9706973 Z" id="Fill-103" fill="#633B0A"></path>
                        <g id="Group-107" transform="translate(0, 7.385)">
                            <mask id="mask-55" fill="white">
                                <use xlink:href="#path-54"></use>
                            </mask>
                            <g id="Clip-106"></g>
                            <path d="M17.1712026,8.58567747 C17.1712026,13.3279085 13.3277561,17.1713549 8.58552513,17.1713549 C3.84329412,17.1713549 -0.000152336364,13.3279085 -0.000152336364,8.58567747 C-0.000152336364,3.84344646 3.84329412,0 8.58552513,0 C13.3277561,0 17.1712026,3.84344646 17.1712026,8.58567747" id="Fill-105" fill="#FFFFFF" mask="url(#mask-55)"></path>
                        </g>
                        <path d="M8.58552513,15.9706973 L14.6485124,15.9706973 C14.6485124,19.2977235 11.9125513,22.0336846 8.58552513,22.0336846 C5.25849894,22.0336846 2.52253785,19.2977235 2.52253785,15.9706973 C2.52253785,12.6436711 5.25849894,9.90771002 8.58552513,9.90771002 C10.2825522,9.90771002 11.9034111,10.6191208 13.0520273,11.8698024 L8.58552513,15.9706973 Z" id="Fill-108" fill="#633B0A"></path>
                        <path d="M19.9035076,32.0080603 C20.8525632,32.609789 21.4664787,33.2008541 22.1047681,33.7431715 C22.4109642,34.0234704 22.7247771,34.2595918 23.0492535,34.5353206 C23.3843935,34.8003859 23.7484774,35.0319372 24.2268136,35.3716473 C23.7454307,35.6702265 23.1452254,35.7509648 22.5922444,35.6321424 C22.0346934,35.5239836 21.5289366,35.240638 21.1054415,34.8917877 C20.7047969,34.5170403 20.3696569,34.0889751 20.1609561,33.5969286 C19.9476852,33.112499 19.8181993,32.5808451 19.9035076,32.0080603" id="Fill-110" fill="#633B0A"></path>
                        <path d="M15.0695701,32.0080603 C15.634738,32.8154431 15.4199438,33.8437135 14.8730562,34.553601 C14.3017949,35.2558716 13.3740664,35.6732733 12.4570015,35.3716473 C12.6915995,34.9313952 12.9155339,34.6419561 13.1135712,34.3601338 C13.3146552,34.0859283 13.4974588,33.8467603 13.6772158,33.6106389 C14.0641501,33.1429663 14.4206172,32.7011908 15.0695701,32.0080603" id="Fill-112" fill="#633B0A"></path>
                        <path d="M42.992978,2.14221153 C42.992978,2.14221153 50.9647399,-1.73931902 55.4799897,4.91930345" id="Stroke-114" stroke="#633B0A" stroke-width="2" stroke-linecap="round" stroke-linejoin="round"></path>
                        <path d="M14.9070272,1.48274742 C14.9070272,1.48274742 7.20794739,-2.91368005 2.26463239,3.43417624" id="Stroke-116" stroke="#633B0A" stroke-width="2" stroke-linecap="round" stroke-linejoin="round"></path>
                        <path d="M39.6900209,35.6671798 C39.6900209,35.6671798 40.4440859,40.3957005 45.9936997,40.2738314 C51.5433134,40.1519624 51.2157902,32.8855178 51.2157902,32.8855178" id="Stroke-118" stroke="#633B0A" stroke-linecap="round" stroke-linejoin="round"></path>
                    </g>
                </g>
            </g>
        </g>
    </g>
</svg>